<?xml version="1.0" encoding="UTF-8"?>
<svg version="1.1" xmlns="http://www.w3.org/2000/svg" width="475" height="470">
<path d="M0 0 C7.17935856 1.19655976 12.60158433 3.74354988 19 7 C19.65613281 7.31710938 20.31226563 7.63421875 20.98828125 7.9609375 C23.8513951 9.4397497 26.49909414 11.21638976 29.1953125 12.9765625 C30.94417257 14.16443253 30.94417257 14.16443253 33 14 C33.66 14.66 34.32 15.32 35 16 C35.61875 16.12375 36.2375 16.2475 36.875 16.375 C39.71942722 17.21159624 40.91464993 18.91464993 43 21 C46.29005023 22.85065325 49.31534577 24.21043124 53 25 C53.66 25.33 54.32 25.66 55 26 C55 26.66 55 27.32 55 28 C56.093125 28.309375 57.18625 28.61875 58.3125 28.9375 C64.80952381 30.80952381 64.80952381 30.80952381 67 33 C68.98387708 34.03161608 70.98276656 35.03523618 73 36 C73 36.66 73 37.32 73 38 C74.32 38 75.64 38 77 38 C78.02019573 38.9793879 79.02149805 39.97895449 80 41 C80.99 41 81.98 41 83 41 C83.33 41.66 83.66 42.32 84 43 C84.99 43 85.98 43 87 43 C87.66666667 44.33333333 88.33333333 45.66666667 89 47 C91.11327425 47.90725434 91.11327425 47.90725434 93.5625 48.625 C94.38878906 48.88539062 95.21507812 49.14578125 96.06640625 49.4140625 C96.70449219 49.60742188 97.34257812 49.80078125 98 50 C98 50.66 98 51.32 98 52 C102.39253773 53.56272189 102.39253773 53.56272189 107 54 C107.33 54.66 107.66 55.32 108 56 C108.66 55.67 109.32 55.34 110 55 C111.13584663 56.13584663 112.25472448 57.2911137 113.3125 58.5 C116.37088245 61.21856217 119.05377286 62.03784909 123.125 61.875 C126 62 126 62 127.625 63.75 C128.07875 64.4925 128.5325 65.235 129 66 C132.00323345 69.52103232 134.54335116 70.78455032 139 72 C139 72.66 139 73.32 139 74 C139.66 74 140.32 74 141 74 C141.33 73.34 141.66 72.68 142 72 C142.99 72.33 143.98 72.66 145 73 C145.13535156 73.63292969 145.27070313 74.26585938 145.41015625 74.91796875 C145.80607127 77.18514183 145.80607127 77.18514183 147.99609375 78.30078125 C148.80175781 78.63464844 149.60742188 78.96851562 150.4375 79.3125 C151.24058594 79.65925781 152.04367187 80.00601563 152.87109375 80.36328125 C155.02580224 81.27241196 155.02580224 81.27241196 157 80 C157.391875 80.433125 157.78375 80.86625 158.1875 81.3125 C160.01796997 83.13582629 160.01796997 83.13582629 162.625 84.5625 C165 86 165 86 166 88 C166.969375 88.12375 167.93875 88.2475 168.9375 88.375 C169.948125 88.58125 170.95875 88.7875 172 89 C172.309375 89.639375 172.61875 90.27875 172.9375 90.9375 C173.90469659 93.40481765 173.90469659 93.40481765 177.375 94.125 C178.57125 94.41375 179.7675 94.7025 181 95 C182.35350594 95.62469505 183.69934483 96.2716331 185 97 C185 97.66 185 98.32 185 99 C187.53505545 100.02587676 190.07178226 101.02622813 192.640625 101.96484375 C193.50171875 102.28582031 194.3628125 102.60679687 195.25 102.9375 C196.12140625 103.25589844 196.9928125 103.57429688 197.890625 103.90234375 C200 105 200 105 201 108 C203.32315031 108.7013284 205.65789079 109.36485174 208 110 C209.34958307 110.97795875 210.68113805 111.98099021 212 113 C213.81513434 114.07306471 215.64984429 115.11351377 217.5 116.125 C218.4384375 116.64320313 219.376875 117.16140625 220.34375 117.6953125 C222.62769092 118.81713054 224.54263514 119.44921133 227 120 C229.52302601 121.38766431 231.80063048 122.84292099 234.0625 124.625 C236.07076219 126.05021833 237.59573204 126.57066644 240 127 C240 127.66 240 128.32 240 129 C242.97 129.99 242.97 129.99 246 131 C248.13391037 142.61994888 248.60361949 155.193913 248 167 C247.67 167.33 247.34 167.66 247 168 C247.144375 169.03382813 247.28875 170.06765625 247.4375 171.1328125 C248.44063393 178.33801487 248.05303589 185.64212573 247.97949219 192.8984375 C247.96149132 194.84632128 247.94940182 196.7942569 247.9375 198.7421875 C247.92589844 199.8957373 247.91429687 201.04928711 247.90234375 202.23779297 C247.8071562 204.96042253 247.8071562 204.96042253 249 207 C248.68591921 209.00311367 248.3494147 211.00274677 248 213 C247.91193772 215.06630653 247.86941958 217.13494399 247.8671875 219.203125 C247.86525391 220.92015625 247.86525391 220.92015625 247.86328125 222.671875 C247.86714844 223.85265625 247.87101563 225.0334375 247.875 226.25 C247.87113281 227.44625 247.86726562 228.6425 247.86328125 229.875 C247.86457031 231.01453125 247.86585938 232.1540625 247.8671875 233.328125 C247.86887939 234.88901855 247.86887939 234.88901855 247.87060547 236.48144531 C247.8311521 238.99624798 247.8311521 238.99624798 249 241 C248.01 241 247.02 241 246 241 C246.33 242.32 246.66 243.64 247 245 C248.093125 245.12375 249.18625 245.2475 250.3125 245.375 C254 246 254 246 257 248 C259.7866308 248.6966577 262.11879288 249 265 249 C265.33 249.99 265.66 250.98 266 252 C267.79517687 253.01984911 267.79517687 253.01984911 269.9375 253.6875 C270.64777344 253.93886719 271.35804688 254.19023437 272.08984375 254.44921875 C273.98895491 255.092352 273.98895491 255.092352 276 255 C276.33 255.66 276.66 256.32 277 257 C278.32 257 279.64 257 281 257 C282.75 258.5 282.75 258.5 284 260 C284.66 259.01 285.32 258.02 286 257 C286.0928125 257.92232422 286.0928125 257.92232422 286.1875 258.86328125 C286.81763802 261.21669764 286.81763802 261.21669764 289.25 262.23046875 C290.1575 262.54628906 291.065 262.86210937 292 263.1875 C296.95364238 264.95364238 296.95364238 264.95364238 298 266 C298.27312814 268.84053265 298.47720335 271.65208279 298.625 274.5 C298.69255493 275.76614136 298.69255493 275.76614136 298.76147461 277.05786133 C299.13669089 285.42261008 298.69375334 293.66428684 298 302 C293.2890625 303.1171875 293.2890625 303.1171875 290.6875 302.0625 C290.130625 301.711875 289.57375 301.36125 289 301 C288.67 301.66 288.34 302.32 288 303 C286.0625 302.25 286.0625 302.25 284 301 C283.37109375 298.921875 283.37109375 298.921875 283 297 C281.72125 296.690625 280.4425 296.38125 279.125 296.0625 C276.89898325 295.52394756 275.05260001 295.0263 273 294 C270.90951951 293.41205236 269.17634453 293 267 293 C267 292.01 267 291.02 267 290 C264.64632287 289.3121764 264.64632287 289.3121764 262 289 C261.01 289.66 260.02 290.32 259 291 C259.33 289.68 259.66 288.36 260 287 C259.13375 286.896875 258.2675 286.79375 257.375 286.6875 C253.83316877 285.96601586 251.15687958 284.72876739 248 283 C248.020625 283.9075 248.04125 284.815 248.0625 285.75 C248 289 248 289 247.49609375 290.828125 C246.86259128 293.60156889 246.94316712 296.15835598 247 299 C247.07085731 302.54286536 247.04583593 305.60103323 246 309 C246.66 309 247.32 309 248 309 C247.51421457 312.12290635 247.0013988 314.99580359 246 318 C246.66 318 247.32 318 248 318 C247.42415568 320.38564077 246.77772405 322.66682784 246 325 C246.66 325 247.32 325 248 325 C248 328.33333333 248 331.66666667 248 335 C247.34 335 246.68 335 246 335 C246 345.56 246 356.12 246 367 C246.66 367 247.32 367 248 367 C248 367.66 248 368.32 248 369 C247.195625 369.12375 246.39125 369.2475 245.5625 369.375 C244.2940625 369.684375 244.2940625 369.684375 243 370 C242.67 370.66 242.34 371.32 242 372 C241.01 371.67 240.02 371.34 239 371 C239 370.34 239 369.68 239 369 C227.12 369.495 227.12 369.495 215 370 C215.66 370.66 216.32 371.32 217 372 C214.0625 371.625 214.0625 371.625 211 371 C209.82807062 368.65614125 209.86036516 367.24382058 209.83505249 364.63056946 C209.82381851 363.7123793 209.81258453 362.79418915 209.80101013 361.84817505 C209.79368362 360.83778168 209.78635712 359.82738831 209.77880859 358.78637695 C209.7673027 357.72443619 209.75579681 356.66249542 209.74394226 355.56837463 C209.70712603 352.04170666 209.67755177 348.51502064 209.6484375 344.98828125 C209.6253269 342.5416793 209.60193661 340.09507998 209.57827759 337.64848328 C209.52975499 332.51120283 209.48484005 327.3739063 209.44238281 322.23657227 C209.38769048 315.65695289 209.32383237 309.07746052 209.25720787 302.49795246 C209.20706654 297.44076169 209.16196815 292.38353542 209.11836624 287.32628441 C209.09682173 284.90101856 209.0736777 282.47576637 209.0489006 280.05053139 C209.01492845 276.65390708 208.98778553 273.25729362 208.96240234 269.8605957 C208.95102737 268.86032349 208.9396524 267.86005127 208.92793274 266.82946777 C208.89749231 261.75660236 209.17261745 257.00277701 210 252 C210.00393293 249.95897456 209.95101564 247.91711487 209.84375 245.87890625 C209.79017334 244.71069336 209.73659668 243.54248047 209.68139648 242.33886719 C209.62153564 241.09266602 209.5616748 239.84646484 209.5 238.5625 C208.8607169 223.2311383 209.24309888 208.01432695 209.89233398 192.68847656 C209.95488716 191.12649106 210 189.56323754 210 188 C210 175.33333333 210 162.66666667 210 150 C209.05447266 150.29197266 209.05447266 150.29197266 208.08984375 150.58984375 C207.05537109 150.79287109 207.05537109 150.79287109 206 151 C205 150 204 149 203 148 C200.37429296 147.74930087 200.37429296 147.74930087 198 148 C197.938125 147.38125 197.87625 146.7625 197.8125 146.125 C197.1770915 143.77107651 197.1770915 143.77107651 194.6875 142.75 C191.82290068 141.82080069 191.82290068 141.82080069 188 142 C188 141.34 188 140.68 188 140 C187.01 139.67 186.02 139.34 185 139 C184.566875 138.505 184.13375 138.01 183.6875 137.5 C181.31932032 135.39495139 179.08518447 135.34279827 176 135 C176.33 134.01 176.66 133.02 177 132 C175.02 132 173.04 132 171 132 C170.67 131.01 170.34 130.02 170 129 C167.16666667 127.16666667 167.16666667 127.16666667 164 126 C163.01 126.33 162.02 126.66 161 127 C160.67 126.01 160.34 125.02 160 124 C158.35 124 156.7 124 155 124 C154.95875 123.38125 154.9175 122.7625 154.875 122.125 C154.441875 121.073125 154.441875 121.073125 154 120 C152.02253397 119.26919734 150.01927511 118.60578253 148 118 C147 117 146 116 145 115 C143.68 115 142.36 115 141 115 C140.67 114.01 140.34 113.02 140 112 C138.948125 111.896875 137.89625 111.79375 136.8125 111.6875 C133.08321961 111.01500681 131.13219079 110.0011219 128 108 C127.01 108 126.02 108 125 108 C124.731875 107.195625 124.46375 106.39125 124.1875 105.5625 C123.5996875 104.2940625 123.5996875 104.2940625 123 103 C121.515 102.505 121.515 102.505 120 102 C119.01 102.495 119.01 102.495 118 103 C115.46524437 101.0285234 113.13759643 99.15479598 111 96.75 C109.09475036 94.73704113 109.09475036 94.73704113 106.25 94.75 C105.5075 94.8325 104.765 94.915 104 95 C103.67 94.01 103.34 93.02 103 92 C102.67 92.66 102.34 93.32 102 94 C101.01 94 100.02 94 99 94 C99 93.01 99 92.02 99 91 C98.34 91 97.68 91 97 91 C96.67 90.01 96.34 89.02 96 88 C94.13977928 86.76722873 94.13977928 86.76722873 91.9375 85.8125 C90.83728516 85.29623047 90.83728516 85.29623047 89.71484375 84.76953125 C89.14894531 84.51558594 88.58304687 84.26164062 88 84 C88.33 84.99 88.66 85.98 89 87 C87.576875 86.7215625 87.576875 86.7215625 86.125 86.4375 C83.10131207 85.71313368 83.10131207 85.71313368 81 87 C80.95745644 85.00045254 80.95919217 82.99958364 81 81 C81.33 80.67 81.66 80.34 82 80 C80.824375 79.814375 80.824375 79.814375 79.625 79.625 C77 79 77 79 75 77 C74.34 77 73.68 77 73 77 C73 76.01 73 75.02 73 74 C72.29230469 73.73574219 71.58460938 73.47148438 70.85546875 73.19921875 C66.84891391 71.51657533 63.18408048 69.31610604 59.42578125 67.14453125 C58.62527344 66.76683594 57.82476562 66.38914062 57 66 C56.01 66.495 56.01 66.495 55 67 C55 66.01 55 65.02 55 64 C54.21625 63.690625 53.4325 63.38125 52.625 63.0625 C50 62 50 62 48 61 C47.505 61.99 47.505 61.99 47 63 C46.01 62.34 45.02 61.68 44 61 C43.01 61.66 42.02 62.32 41 63 C40.33333333 60.33333333 39.66666667 57.66666667 39 55 C37.35 55 35.7 55 34 55 C34.16330276 56.1686132 34.32660551 57.33722641 34.49485683 58.54125214 C34.98645362 62.49340364 35.10914616 66.35341404 35.08229065 70.33996582 C35.07906152 71.03283802 35.07583239 71.72571021 35.07250541 72.43957853 C35.06054429 74.73647115 35.0411492 77.03323743 35.02172852 79.33007812 C35.0115736 80.98640681 35.00188127 82.64273838 34.99261475 84.29907227 C34.96625511 88.77783459 34.93345144 93.25652896 34.89946485 97.73523903 C34.86500104 102.4223864 34.83649966 107.10956999 34.80735779 111.79675293 C34.7513209 120.66467626 34.68994482 129.53255422 34.62663645 138.4004283 C34.55479914 148.49954869 34.48893536 158.5987053 34.42356598 168.6978693 C34.28901017 189.46529325 34.14697665 210.23266048 34 231 C32.02 231.99 32.02 231.99 30 233 C30.66 233.99 31.32 234.98 32 236 C28.61976483 236 26.16531063 235.12544378 23 234 C23 234.66 23 235.32 23 236 C22.030625 236.12375 21.06125 236.2475 20.0625 236.375 C19.051875 236.58125 18.04125 236.7875 17 237 C16.67 237.66 16.34 238.32 16 239 C15.01 239 14.02 239 13 239 C13 238.34 13 237.68 13 237 C12.48050781 237.22816406 11.96101562 237.45632813 11.42578125 237.69140625 C10.72839844 237.97886719 10.03101563 238.26632812 9.3125 238.5625 C8.62800781 238.85253906 7.94351563 239.14257812 7.23828125 239.44140625 C5 240 5 240 0 239 C0 160.13 0 81.26 0 0 Z M40 56 C41 58 41 58 41 58 Z M122 64 C126 65 126 65 126 65 Z M142 74 C142.66 74.66 143.32 75.32 144 76 C144 75.34 144 74.68 144 74 C143.34 74 142.68 74 142 74 Z M211 196 C212 198 212 198 212 198 Z M211 247 C212 249 212 249 212 249 Z M286 299 C287 301 287 301 287 301 Z " fill="#008136" transform="translate(118,26)"/>
<path d="M0 0 C2.50879417 2.50879417 2.23851637 4.01799895 2.25816262 7.44043934 C2.25233693 8.20502142 2.24651125 8.9696035 2.24050903 9.75735474 C2.24221788 10.56760695 2.24392673 11.37785917 2.24568737 12.21266448 C2.24899623 14.94280873 2.23795573 17.67271022 2.22705078 20.40283203 C2.22648697 22.35384109 2.22680264 24.30485057 2.22793579 26.25585938 C2.22851147 31.56552584 2.21672238 36.87510262 2.20278788 42.18474817 C2.19031633 47.72878221 2.18911285 53.27281812 2.18673706 58.81686401 C2.18051175 69.32119322 2.16408675 79.82548098 2.14403808 90.3297919 C2.12171173 102.28607418 2.11069388 114.2423584 2.10064721 126.19865632 C2.07972141 150.79912723 2.04452506 175.39956129 2 200 C1.34 200 0.68 200 0 200 C-0.33 200.66 -0.66 201.32 -1 202 C-1 201.34 -1 200.68 -1 200 C-1.99 200 -2.98 200 -4 200 C-4 200.66 -4 201.32 -4 202 C-4.99 202 -5.98 202 -7 202 C-7 201.34 -7 200.68 -7 200 C-19.375 200.495 -19.375 200.495 -32 201 C-32.77486664 197.12566681 -33.1008614 194.32359633 -33.02734375 190.47265625 C-33.01509766 189.43302734 -33.00285156 188.39339844 -32.99023438 187.32226562 C-32.95514022 185.15292696 -32.91609164 182.98364859 -32.87304688 180.81445312 C-32.8153899 175.33704031 -33.13904167 171.19900018 -35 166 C-34.34 165.01 -33.68 164.02 -33 163 C-33.33 163 -33.66 163 -34 163 C-33.979375 161.88625 -33.95875 160.7725 -33.9375 159.625 C-33.73619282 156.16784079 -33.73619282 156.16784079 -35 154 C-34.649375 152.88625 -34.29875 151.7725 -33.9375 150.625 C-32.62839469 147.21269903 -32.62839469 147.21269903 -33.96484375 145.1015625 C-35.29834175 142.39430996 -35.01509126 140.71469359 -34.625 137.75 C-34.51414063 136.85796875 -34.40328125 135.9659375 -34.2890625 135.046875 C-34.19367188 134.37140625 -34.09828125 133.6959375 -34 133 C-33.34 133 -32.68 133 -32 133 C-32 132.34 -32 131.68 -32 131 C-32.66 131 -33.32 131 -34 131 C-34 128.33333333 -34 125.66666667 -34 123 C-34.32550502 121.33178677 -34.65846063 119.66500443 -35 118 C-34.01 117.67 -33.02 117.34 -32 117 C-32 116.34 -32 115.68 -32 115 C-32.66 115 -33.32 115 -34 115 C-34.24887295 112.89807303 -34.4734719 110.79326036 -34.6875 108.6875 C-34.81511719 107.51574219 -34.94273437 106.34398437 -35.07421875 105.13671875 C-35 102 -35 102 -33.51953125 100.08203125 C-33.01808594 99.72496094 -32.51664063 99.36789062 -32 99 C-32.66 99 -33.32 99 -34 99 C-34 97.35 -34 95.7 -34 94 C-34.66 94 -35.32 94 -36 94 C-36 93.34 -36 92.68 -36 92 C-37.65 91.34 -39.3 90.68 -41 90 C-41 90.99 -41 91.98 -41 93 C-47.435 93.99 -47.435 93.99 -54 95 C-54.33 95.99 -54.66 96.98 -55 98 C-58.28696233 98.79953138 -59.71023192 99.09658936 -63 98 C-65.3570226 98.94280904 -67.69034152 99.94647157 -70 101 C-71.32674523 101.3586586 -72.66170482 101.68718232 -74 102 C-76.37809508 102.63434176 -78.75283848 103.28131753 -81.125 103.9375 C-82.36507812 104.27652344 -83.60515625 104.61554688 -84.8828125 104.96484375 C-88.0602911 105.76147614 -88.0602911 105.76147614 -90 108 C-91.32 108 -92.64 108 -94 108 C-94.33 108.66 -94.66 109.32 -95 110 C-96.99434001 110.29424689 -98.99092823 110.58101313 -100.99609375 110.7890625 C-104.56708596 111.16495642 -106.42842142 111.42842142 -109 114 C-110.32 114 -111.64 114 -113 114 C-114.67225729 114.30404678 -116.34080104 114.63128912 -118 115 C-118.495 116.485 -118.495 116.485 -119 118 C-123.95 118.495 -123.95 118.495 -129 119 C-129.495 120.485 -129.495 120.485 -130 122 C-133.465 122.495 -133.465 122.495 -137 123 C-137.495 124.485 -137.495 124.485 -138 126 C-138.33 125.34 -138.66 124.68 -139 124 C-139.99 124.66 -140.98 125.32 -142 126 C-144.02354475 126 -146.04763603 125.99677257 -148.0703125 125.9375 C-150.45562716 126.01475715 -151.96639328 126.79489972 -154 128 C-154.99 128 -155.98 128 -157 128 C-157.66 128.66 -158.32 129.32 -159 130 C-159.33 130.33 -159.66 130.66 -160 131 C-160.99 131 -161.98 131 -163 131 C-163.99 131.33 -164.98 131.66 -166 132 C-166 132.66 -166 133.32 -166 134 C-170 134 -174 134 -178 134 C-178.33 134.99 -178.66 135.98 -179 137 C-179 136.34 -179 135.68 -179 135 C-180.32 135.33 -181.64 135.66 -183 136 C-183 136.66 -183 137.32 -183 138 C-183.66 138 -184.32 138 -185 138 C-185.33 139.32 -185.66 140.64 -186 142 C-186.99 141.01 -186.99 141.01 -188 140 C-191.465 140.99 -191.465 140.99 -195 142 C-195 141.34 -195 140.68 -195 140 C-195.61488281 140.2165625 -196.22976562 140.433125 -196.86328125 140.65625 C-198.07564453 141.07390625 -198.07564453 141.07390625 -199.3125 141.5 C-200.11300781 141.7784375 -200.91351563 142.056875 -201.73828125 142.34375 C-204 143 -204 143 -207 143 C-207.33 143.66 -207.66 144.32 -208 145 C-208.66 144.67 -209.32 144.34 -210 144 C-209.67 145.65 -209.34 147.3 -209 149 C-209.66 149 -210.32 149 -211 149 C-211.33 148.01 -211.66 147.02 -212 146 C-213.98 146.99 -213.98 146.99 -216 148 C-215.67 148.66 -215.34 149.32 -215 150 C-219.95 150 -224.9 150 -230 150 C-231.51392533 146.97214935 -231.162841 143.82934407 -231.16796875 140.5078125 C-231.17296135 139.39428909 -231.17296135 139.39428909 -231.17805481 138.25827026 C-231.18312087 136.68634664 -231.18546323 135.11441225 -231.18530273 133.54248047 C-231.18748508 131.1414202 -231.20563223 128.74082244 -231.22460938 126.33984375 C-231.22754422 124.81250157 -231.22952841 123.28515721 -231.23046875 121.7578125 C-231.24124702 120.68262863 -231.24124702 120.68262863 -231.25224304 119.58572388 C-231.23537648 115.89103539 -231.04194284 113.13903821 -229 110 C-227.35 110.33 -225.7 110.66 -224 111 C-223.505 110.01 -223.505 110.01 -223 109 C-220.93734178 108.6088062 -218.90556733 108.49325481 -216.8125 108.34375 C-216.214375 108.2303125 -215.61625 108.116875 -215 108 C-214.67 107.34 -214.34 106.68 -214 106 C-212.0625 105.3125 -212.0625 105.3125 -210 105 C-209.34 105.33 -208.68 105.66 -208 106 C-207.67 105.34 -207.34 104.68 -207 104 C-204.0262656 102.90963072 -203.11592499 102.96135834 -200 104 C-199.505 102.515 -199.505 102.515 -199 101 C-197.824375 100.87625 -196.64875 100.7525 -195.4375 100.625 C-188.07150806 99.79149017 -188.07150806 99.79149017 -182 96 C-181.01 96 -180.02 96 -179 96 C-178.67 95.34 -178.34 94.68 -178 94 C-176.68 94.33 -175.36 94.66 -174 95 C-174 94.34 -174 93.68 -174 93 C-173.01 93.061875 -172.02 93.12375 -171 93.1875 C-166.53111789 93.21491645 -163.08695392 91.7208227 -159 90 C-159 89.34 -159 88.68 -159 88 C-153.375 86 -153.375 86 -150 86 C-149.01 85.67 -148.02 85.34 -147 85 C-145.2365625 84.7834375 -145.2365625 84.7834375 -143.4375 84.5625 C-139.94528412 84.33437482 -139.94528412 84.33437482 -138 82 C-138 82.66 -138 83.32 -138 84 C-136.35 83.67 -134.7 83.34 -133 83 C-132.505 81.02 -132.505 81.02 -132 79 C-131.401875 79.226875 -130.80375 79.45375 -130.1875 79.6875 C-129.465625 79.790625 -128.74375 79.89375 -128 80 C-126.97895449 79.02149805 -125.9793879 78.02019573 -125 77 C-123.68 77 -122.36 77 -121 77 C-114.03785581 76.30378558 -107.60435791 74.20145264 -101 72 C-101 71.34 -101 70.68 -101 70 C-100.34773437 69.93941406 -99.69546875 69.87882812 -99.0234375 69.81640625 C-91.96474024 69.21360465 -91.96474024 69.21360465 -85 68 C-84.67 67.34 -84.34 66.68 -84 66 C-83.195625 65.87625 -82.39125 65.7525 -81.5625 65.625 C-78.84016601 65.27432836 -78.84016601 65.27432836 -77.6875 62.9375 C-77.3471875 61.9784375 -77.3471875 61.9784375 -77 61 C-76.34 61.66 -75.68 62.32 -75 63 C-74.29875 62.690625 -73.5975 62.38125 -72.875 62.0625 C-69.89885876 60.96262172 -67.13170118 60.46642358 -64 60 C-60.98974538 59.41467271 -60.23298316 59.23298316 -58 57 C-56.68 57 -55.36 57 -54 57 C-53.67 55.68 -53.34 54.36 -53 53 C-52.34 53.99 -51.68 54.98 -51 56 C-50.34 56 -49.68 56 -49 56 C-48.67 55.01 -48.34 54.02 -48 53 C-46.68 53 -45.36 53 -44 53 C-42.32774271 52.69595322 -40.65919896 52.36871088 -39 52 C-38.67 51.01 -38.34 50.02 -38 49 C-37.34 49.66 -36.68 50.32 -36 51 C-35.814375 49.5459375 -35.814375 49.5459375 -35.625 48.0625 C-35.41875 47.051875 -35.2125 46.04125 -35 45 C-34.34 44.67 -33.68 44.34 -33 44 C-33.185625 43.2575 -33.37125 42.515 -33.5625 41.75 C-33.99203108 39.05009037 -33.85122974 37.55368923 -33 35 C-33.66 34.67 -34.32 34.34 -35 34 C-34.814375 33.319375 -34.62875 32.63875 -34.4375 31.9375 C-33.91476057 28.42767809 -34.38621423 25.47811937 -35 22 C-34.34 22 -33.68 22 -33 22 C-33.20625 21.278125 -33.4125 20.55625 -33.625 19.8125 C-34.0743673 16.44224528 -33.73311469 14.9147838 -32 12 C-29.08543662 10.43061972 -27.32058331 10 -24 10 C-23.67 9.34 -23.34 8.68 -23 8 C-20.35139573 7.40644386 -17.70802678 7.25790731 -15 7 C-15 6.34 -15 5.68 -15 5 C-12.36 5 -9.72 5 -7 5 C-6.67 3.68 -6.34 2.36 -6 1 C-5.01 1 -4.02 1 -3 1 C-2.01 0.67 -1.02 0.34 0 0 Z M-57 95 C-57.33 95.66 -57.66 96.32 -58 97 C-57.34 97 -56.68 97 -56 97 C-56.33 96.34 -56.66 95.68 -57 95 Z M-33 128 C-32 130 -32 130 -32 130 Z M-33 152 C-32 154 -32 154 -32 154 Z M-33 168 C-32 170 -32 170 -32 170 Z " fill="#028036" transform="translate(278,195)"/>
<path d="M0 0 C2.76343365 1.08862538 3.54146929 2.26986458 5.0625 4.8125 C5.42326355 7.60931396 5.42326355 7.60931396 5.40307617 10.86621094 C5.40273628 12.69765656 5.40273628 12.69765656 5.40238953 14.56610107 C5.38690567 15.87975647 5.37142181 17.19341187 5.35546875 18.546875 C5.34987064 19.90878838 5.34560155 21.27070781 5.34260559 22.63262939 C5.33117361 26.21007079 5.30172117 29.78714442 5.26849365 33.36444092 C5.23775691 37.01764959 5.22409259 40.67091793 5.20898438 44.32421875 C5.17684941 51.48714648 5.12567358 58.64977163 5.0625 65.8125 C4.4025 65.8125 3.7425 65.8125 3.0625 65.8125 C3.0625 66.4725 3.0625 67.1325 3.0625 67.8125 C0.0925 67.8125 -2.8775 67.8125 -5.9375 67.8125 C-5.9375 67.4825 -5.9375 67.1525 -5.9375 66.8125 C-12.8675 66.4825 -19.7975 66.1525 -26.9375 65.8125 C-27.4325 66.8025 -27.4325 66.8025 -27.9375 67.8125 C-29.18740866 65.31268268 -29.08473137 63.58115169 -29.11450195 60.78369141 C-29.12733719 59.73565338 -29.14017242 58.68761536 -29.15339661 57.6078186 C-29.16078354 56.47137909 -29.16817047 55.33493958 -29.17578125 54.1640625 C-29.183853 52.99998871 -29.19192474 51.83591492 -29.20024109 50.63656616 C-29.21408918 48.17016086 -29.22480807 45.70373634 -29.23266602 43.23730469 C-29.24989773 39.45991903 -29.29378111 35.68340406 -29.33789062 31.90625 C-29.34801553 29.51302729 -29.35653226 27.11979712 -29.36328125 24.7265625 C-29.38078934 23.59417145 -29.39829742 22.4617804 -29.41633606 21.29507446 C-29.41341049 20.24073212 -29.41048492 19.18638977 -29.4074707 18.10009766 C-29.41333694 17.17347321 -29.41920319 16.24684875 -29.42524719 15.29214478 C-28.79563832 12.09129324 -27.38336714 10.88465117 -24.9375 8.8125 C-23.9475 9.1425 -22.9575 9.4725 -21.9375 9.8125 C-21.6075 9.1525 -21.2775 8.4925 -20.9375 7.8125 C-20.9375 8.4725 -20.9375 9.1325 -20.9375 9.8125 C-20.15375 9.52375 -19.37 9.235 -18.5625 8.9375 C-14.0752242 7.54489716 -9.552221 6.66978019 -4.9375 5.8125 C-4.81375 5.008125 -4.69 4.20375 -4.5625 3.375 C-4.253125 2.1065625 -4.253125 2.1065625 -3.9375 0.8125 C-1.9375 -0.1875 -1.9375 -0.1875 0 0 Z " fill="#038238" transform="translate(146.9375,329.1875)"/>
<path d="M0 0 C4.47162847 0.74527141 7.08245322 1.22777646 11 3 C11.64324219 3.2784375 12.28648437 3.556875 12.94921875 3.84375 C17.42541648 5.89568537 20.19631787 7.7944768 23 12 C17 10 17 10 3 3 C3 80.55 3 158.1 3 238 C12.24 235.03 21.48 232.06 31 229 C31.33 209.53 31.66 190.06 32 170 C32.66 170 33.32 170 34 170 C34 190.13 34 210.26 34 231 C32.02 231.99 32.02 231.99 30 233 C30.66 233.99 31.32 234.98 32 236 C28.61976483 236 26.16531063 235.12544378 23 234 C23 234.66 23 235.32 23 236 C22.030625 236.12375 21.06125 236.2475 20.0625 236.375 C19.051875 236.58125 18.04125 236.7875 17 237 C16.67 237.66 16.34 238.32 16 239 C15.01 239 14.02 239 13 239 C13 238.34 13 237.68 13 237 C12.48050781 237.22816406 11.96101562 237.45632813 11.42578125 237.69140625 C10.72839844 237.97886719 10.03101563 238.26632812 9.3125 238.5625 C8.62800781 238.85253906 7.94351563 239.14257812 7.23828125 239.44140625 C5 240 5 240 0 239 C0 160.13 0 81.26 0 0 Z " fill="#7C8A82" transform="translate(118,26)"/>
<path d="M0 0 C1.32 0 2.64 0 4 0 C4 65.34 4 130.68 4 198 C4.66 198.33 5.32 198.66 6 199 C5.67 199.33 5.34 199.66 5 200 C5.66 200.66 6.32 201.32 7 202 C4.0625 201.625 4.0625 201.625 1 201 C-0.17192938 198.65614125 -0.13963484 197.24382058 -0.16494751 194.63056946 C-0.17618149 193.7123793 -0.18741547 192.79418915 -0.19898987 191.84817505 C-0.20631638 190.83778168 -0.21364288 189.82738831 -0.22119141 188.78637695 C-0.2326973 187.72443619 -0.24420319 186.66249542 -0.25605774 185.56837463 C-0.29287397 182.04170666 -0.32244823 178.51502064 -0.3515625 174.98828125 C-0.3746731 172.5416793 -0.39806339 170.09507998 -0.42172241 167.64848328 C-0.47024501 162.51120283 -0.51515995 157.3739063 -0.55761719 152.23657227 C-0.61230952 145.65695289 -0.67616763 139.07746052 -0.74279213 132.49795246 C-0.79293346 127.44076169 -0.83803185 122.38353542 -0.88163376 117.32628441 C-0.90317827 114.90101856 -0.9263223 112.47576637 -0.9510994 110.05053139 C-0.98507155 106.65390708 -1.01221447 103.25729362 -1.03759766 99.8605957 C-1.04897263 98.86032349 -1.0603476 97.86005127 -1.07206726 96.82946777 C-1.10250769 91.75660236 -0.82738255 87.00277701 0 82 C0.00393293 79.95897456 -0.04898436 77.91711487 -0.15625 75.87890625 C-0.20982666 74.71069336 -0.26340332 73.54248047 -0.31860352 72.33886719 C-0.40839478 70.46956543 -0.40839478 70.46956543 -0.5 68.5625 C-1.1392831 53.2311383 -0.75690112 38.01432695 -0.10766602 22.68847656 C-0.04511284 21.12649106 0 19.56323754 0 18 C0 12 0 6 0 0 Z M1 26 C2 28 2 28 2 28 Z M1 77 C2 79 2 79 2 79 Z " fill="#758D7F" transform="translate(328,196)"/>
<path d="M0 0 C4.08284731 1.25790171 7.67025487 2.76981464 11.38671875 4.87109375 C12.39847168 5.44021484 13.41022461 6.00933594 14.45263672 6.59570312 C16.05389404 7.50739258 16.05389404 7.50739258 17.6875 8.4375 C18.79367676 9.06205078 19.89985352 9.68660156 21.03955078 10.33007812 C28.63526272 14.6279258 36.19436248 18.98781481 43.73901367 23.37451172 C50.76745649 27.45799968 57.86739515 31.37200867 65.078125 35.125 C76.95590755 41.31619088 88.62521397 47.82741762 100.26660156 54.45117188 C104.30988767 56.74222288 108.37179794 58.99903382 112.4375 61.25 C120.64584154 65.79652818 128.82705426 70.39019137 137 75 C133.08263419 76.1700097 130.02040985 75.69584017 126 75 C126 74.34 126 73.68 126 73 C124.515 72.505 124.515 72.505 123 72 C122.566875 71.505 122.13375 71.01 121.6875 70.5 C119.31932032 68.39495139 117.08518447 68.34279827 114 68 C114.495 66.515 114.495 66.515 115 65 C113.02 65 111.04 65 109 65 C108.67 64.01 108.34 63.02 108 62 C105.16666667 60.16666667 105.16666667 60.16666667 102 59 C100.515 59.495 100.515 59.495 99 60 C98.67 59.01 98.34 58.02 98 57 C96.35 57 94.7 57 93 57 C92.95875 56.38125 92.9175 55.7625 92.875 55.125 C92.58625 54.42375 92.2975 53.7225 92 53 C90.02253397 52.26919734 88.01927511 51.60578253 86 51 C85 50 84 49 83 48 C81.68 48 80.36 48 79 48 C78.67 47.01 78.34 46.02 78 45 C76.4221875 44.8453125 76.4221875 44.8453125 74.8125 44.6875 C71.08321961 44.01500681 69.13219079 43.0011219 66 41 C65.01 41 64.02 41 63 41 C62.731875 40.195625 62.46375 39.39125 62.1875 38.5625 C61.5996875 37.2940625 61.5996875 37.2940625 61 36 C60.01 35.67 59.02 35.34 58 35 C57.01 35.495 57.01 35.495 56 36 C53.46524437 34.0285234 51.13759643 32.15479598 49 29.75 C47.09475036 27.73704113 47.09475036 27.73704113 44.25 27.75 C43.13625 27.87375 43.13625 27.87375 42 28 C41.505 26.515 41.505 26.515 41 25 C40.67 25.66 40.34 26.32 40 27 C39.01 27 38.02 27 37 27 C37 26.01 37 25.02 37 24 C36.34 24 35.68 24 35 24 C34.505 22.515 34.505 22.515 34 21 C32.13977928 19.76722873 32.13977928 19.76722873 29.9375 18.8125 C29.20402344 18.46832031 28.47054687 18.12414062 27.71484375 17.76953125 C26.86599609 17.38861328 26.86599609 17.38861328 26 17 C26.33 17.99 26.66 18.98 27 20 C26.05125 19.814375 25.1025 19.62875 24.125 19.4375 C21.10131207 18.71313368 21.10131207 18.71313368 19 20 C18.95745644 18.00045254 18.95919217 15.99958364 19 14 C19.33 13.67 19.66 13.34 20 13 C19.21625 12.87625 18.4325 12.7525 17.625 12.625 C15 12 15 12 13 10 C12.34 10 11.68 10 11 10 C11 9.01 11 8.02 11 7 C9.948125 6.5978125 9.948125 6.5978125 8.875 6.1875 C5.8350176 4.9318551 2.9272226 3.49764877 0 2 C0 1.34 0 0.68 0 0 Z " fill="#8B9D92" transform="translate(180,93)"/>
<path d="M0 0 C3.85582454 0.25705497 5.37898743 2.37898743 8 5 C11.29005023 6.85065325 14.31534577 8.21043124 18 9 C18.66 9.33 19.32 9.66 20 10 C20 10.66 20 11.32 20 12 C21.093125 12.309375 22.18625 12.61875 23.3125 12.9375 C29.80952381 14.80952381 29.80952381 14.80952381 32 17 C33.98387708 18.03161608 35.98276656 19.03523618 38 20 C38 20.66 38 21.32 38 22 C39.32 22 40.64 22 42 22 C43.02019573 22.9793879 44.02149805 23.97895449 45 25 C45.99 25 46.98 25 48 25 C48.495 25.99 48.495 25.99 49 27 C49.99 27 50.98 27 52 27 C52.66666667 28.33333333 53.33333333 29.66666667 54 31 C56.11327425 31.90725434 56.11327425 31.90725434 58.5625 32.625 C59.38878906 32.88539062 60.21507812 33.14578125 61.06640625 33.4140625 C61.70449219 33.60742188 62.34257812 33.80078125 63 34 C63 34.66 63 35.32 63 36 C67.39253773 37.56272189 67.39253773 37.56272189 72 38 C72.33 38.66 72.66 39.32 73 40 C73.66 39.67 74.32 39.34 75 39 C76.13584663 40.13584663 77.25472448 41.2911137 78.3125 42.5 C81.37088245 45.21856217 84.05377286 46.03784909 88.125 45.875 C91 46 91 46 92.6875 47.8125 C93.120625 48.534375 93.55375 49.25625 94 50 C94.98165594 51.01801357 95.97591432 52.0246803 97 53 C96.67 53.99 96.34 54.98 96 56 C92.22901546 53.95861253 88.45824096 51.91683736 84.6875 49.875 C83.63498047 49.30523437 82.58246094 48.73546875 81.49804688 48.1484375 C70.6885914 42.29470161 59.90310136 36.40061749 49.14590454 30.45135498 C38.11146335 24.34941571 27.05750263 18.28873643 15.94067383 12.33764648 C9.85168536 9.06230688 3.89748697 5.60875537 -2 2 C-1.34 1.34 -0.68 0.68 0 0 Z M87 48 C91 49 91 49 91 49 Z " fill="#5E7A6A" transform="translate(153,42)"/>
<path d="M0 0 C7.31905848 2.00234639 14.18564502 4.63203963 21.125 7.6875 C22.08148438 8.10322266 23.03796875 8.51894531 24.0234375 8.94726562 C26.35119804 9.95984146 28.67660297 10.97746162 31 12 C30.67 12.99 30.34 13.98 30 15 C29.34 14.67 28.68 14.34 28 14 C25.90951951 13.41205236 24.17634453 13 22 13 C22 12.01 22 11.02 22 10 C19.64632287 9.3121764 19.64632287 9.3121764 17 9 C16.01 9.66 15.02 10.32 14 11 C14.33 9.68 14.66 8.36 15 7 C13.700625 6.8453125 13.700625 6.8453125 12.375 6.6875 C8.83316877 5.96601586 6.15687958 4.72876739 3 3 C3.020625 3.9075 3.04125 4.815 3.0625 5.75 C3 9 3 9 2.49609375 10.828125 C1.86259128 13.60156889 1.94316712 16.15835598 2 19 C2.07085731 22.54286536 2.04583593 25.60103323 1 29 C1.66 29 2.32 29 3 29 C2.51421457 32.12290635 2.0013988 34.99580359 1 38 C1.66 38 2.32 38 3 38 C2.42415568 40.38564077 1.77772405 42.66682784 1 45 C1.66 45 2.32 45 3 45 C3 48.33333333 3 51.66666667 3 55 C2.34 55 1.68 55 1 55 C1 62.92 1 70.84 1 79 C0.34 79 -0.32 79 -1 79 C-1.02312392 68.84733849 -1.04091534 58.6946832 -1.05181217 48.54200077 C-1.05704089 43.82820267 -1.06413834 39.11442253 -1.07543945 34.40063477 C-1.08626873 29.85544596 -1.09227692 25.31027448 -1.09487724 20.76507378 C-1.09673142 19.02705042 -1.10035189 17.28902806 -1.10573006 15.55101204 C-1.11294103 13.12521405 -1.11399092 10.69948854 -1.11352539 8.27368164 C-1.11712067 7.54791931 -1.12071594 6.82215698 -1.12442017 6.07440186 C-1.11405216 1.11405216 -1.11405216 1.11405216 0 0 Z " fill="#6DAD88" transform="translate(363,306)"/>
<path d="M0 0 C1.28571429 8.42857143 1.28571429 8.42857143 0 13 C-0.66 13 -1.32 13 -2 13 C-2 11.35 -2 9.7 -2 8 C-2.66 8 -3.32 8 -4 8 C-4 7.34 -4 6.68 -4 6 C-5.65 5.34 -7.3 4.68 -9 4 C-9 4.99 -9 5.98 -9 7 C-13.29 7.66 -17.58 8.32 -22 9 C-22.33 9.99 -22.66 10.98 -23 12 C-26.28696233 12.79953138 -27.71023192 13.09658936 -31 12 C-33.3570226 12.94280904 -35.69034152 13.94647157 -38 15 C-39.32674523 15.3586586 -40.66170482 15.68718232 -42 16 C-44.37809508 16.63434176 -46.75283848 17.28131753 -49.125 17.9375 C-50.36507812 18.27652344 -51.60515625 18.61554688 -52.8828125 18.96484375 C-56.0602911 19.76147614 -56.0602911 19.76147614 -58 22 C-59.32 22 -60.64 22 -62 22 C-62.33 22.66 -62.66 23.32 -63 24 C-65.31 23.67 -67.62 23.34 -70 23 C-67.4524098 20.4524098 -65.28570733 19.9537484 -61.85375977 18.84521484 C-61.2243045 18.64009781 -60.59484924 18.43498077 -59.94631958 18.22364807 C-57.86326432 17.54666026 -55.77746436 16.87860971 -53.69140625 16.2109375 C-52.24400336 15.74337977 -50.79673434 15.27540744 -49.34959412 14.80703735 C-46.3152718 13.82645734 -43.27961785 12.85015062 -40.24291992 11.87695312 C-36.34879301 10.62871296 -32.4577509 9.37116395 -28.56761265 8.11055565 C-25.5790127 7.14300082 -22.58902835 6.17978617 -19.59858513 5.2179451 C-18.16326294 4.75584055 -16.72833021 4.29252455 -15.29379463 3.82798386 C-13.28909927 3.17966314 -11.28266201 2.53705552 -9.27563477 1.89599609 C-8.13361099 1.52896576 -6.99158722 1.16193542 -5.81495667 0.78378296 C-3 0 -3 0 0 0 Z M-25 9 C-25.33 9.66 -25.66 10.32 -26 11 C-25.34 11 -24.68 11 -24 11 C-24.33 10.34 -24.66 9.68 -25 9 Z " fill="#7A8A81" transform="translate(246,281)"/>
<path d="M0 0 C2.76343365 1.08862538 3.54146929 2.26986458 5.0625 4.8125 C5.42326355 7.60931396 5.42326355 7.60931396 5.40307617 10.86621094 C5.40284958 12.08717468 5.40262299 13.30813843 5.40238953 14.56610107 C5.38690567 15.87975647 5.37142181 17.19341187 5.35546875 18.546875 C5.34987064 19.90878838 5.34560155 21.27070781 5.34260559 22.63262939 C5.33117361 26.21007079 5.30172117 29.78714442 5.26849365 33.36444092 C5.23775691 37.01764959 5.22409259 40.67091793 5.20898438 44.32421875 C5.17684941 51.48714648 5.12567358 58.64977163 5.0625 65.8125 C4.4025 65.8125 3.7425 65.8125 3.0625 65.8125 C3.0625 66.4725 3.0625 67.1325 3.0625 67.8125 C1.62594146 67.89381463 0.1880517 67.95183559 -1.25 68 C-2.45076172 68.05220703 -2.45076172 68.05220703 -3.67578125 68.10546875 C-5.9375 67.8125 -5.9375 67.8125 -8.9375 64.8125 C-4.9775 64.8125 -1.0175 64.8125 3.0625 64.8125 C3.0625 45.3425 3.0625 25.8725 3.0625 5.8125 C1.4125 6.1425 -0.2375 6.4725 -1.9375 6.8125 C-2.5975 6.4825 -3.2575 6.1525 -3.9375 5.8125 C-3.9375 4.1625 -3.9375 2.5125 -3.9375 0.8125 C-1.9375 -0.1875 -1.9375 -0.1875 0 0 Z " fill="#6DAD88" transform="translate(146.9375,329.1875)"/>
<path d="M0 0 C1.9375 0.3125 1.9375 0.3125 4 1 C4.33 1.99 4.66 2.98 5 4 C3.35 4.33 1.7 4.66 0 5 C0.03552979 5.9286084 0.07105957 6.8572168 0.10766602 7.81396484 C0.23676274 11.25410148 0.36109484 14.69434125 0.48217773 18.13476562 C0.53560003 19.62474442 0.59092962 21.11465609 0.64819336 22.60449219 C0.73009836 24.74399337 0.80517709 26.88364093 0.87890625 29.0234375 C0.9260376 30.31169434 0.97316895 31.59995117 1.02172852 32.92724609 C1 36 1 36 0 38 C1.22074219 37.61328125 2.44148438 37.2265625 3.69921875 36.828125 C7.10420506 35.74985623 10.51072478 34.67657982 13.91796875 33.60546875 C16.96803375 32.64573775 20.01278584 31.67302117 23.05078125 30.67578125 C24.75814453 30.12470703 24.75814453 30.12470703 26.5 29.5625 C27.5003125 29.23378906 28.500625 28.90507812 29.53125 28.56640625 C32 28 32 28 35 29 C30.60555874 31.46517436 26.95759667 32.31954555 22 33 C21.67 33.66 21.34 34.32 21 35 C20.34 34.67 19.68 34.34 19 34 C19.33 35.65 19.66 37.3 20 39 C19.34 39 18.68 39 18 39 C17.67 38.01 17.34 37.02 17 36 C15.68 36.66 14.36 37.32 13 38 C13.33 38.66 13.66 39.32 14 40 C9.05 40 4.1 40 -1 40 C-2.51392533 36.97214935 -2.162841 33.82934407 -2.16796875 30.5078125 C-2.17296135 29.39428909 -2.17296135 29.39428909 -2.17805481 28.25827026 C-2.18312087 26.68634664 -2.18546323 25.11441225 -2.18530273 23.54248047 C-2.18748508 21.1414202 -2.20563223 18.74082244 -2.22460938 16.33984375 C-2.22754422 14.81250157 -2.22952841 13.28515721 -2.23046875 11.7578125 C-2.24124702 10.68262863 -2.24124702 10.68262863 -2.25224304 9.58572388 C-2.23537648 5.89103539 -2.04194284 3.13903821 0 0 Z " fill="#7D9587" transform="translate(49,305)"/>
<path d="M0 0 C0.66 0 1.32 0 2 0 C2 20.13 2 40.26 2 61 C0.68 61.66 -0.64 62.32 -2 63 C-1.01 64.485 -1.01 64.485 0 66 C-3.38023517 66 -5.83468937 65.12544378 -9 64 C-9 64.66 -9 65.32 -9 66 C-13.455 66.495 -13.455 66.495 -18 67 C-17.67 66.01 -17.34 65.02 -17 64 C-9.08 61.525 -9.08 61.525 -1 59 C-0.67 39.53 -0.34 20.06 0 0 Z " fill="#6F8A7A" transform="translate(150,196)"/>
<path d="M0 0 C0 24.09 0 48.18 0 73 C0.66 73.33 1.32 73.66 2 74 C1.01 74 0.02 74 -1 74 C-1 72.68 -1 71.36 -1 70 C-1.66 70 -2.32 70 -3 70 C-3 68.35 -3 66.7 -3 65 C-2.34 65 -1.68 65 -1 65 C-1 64.34 -1 63.68 -1 63 C-1.66 63 -2.32 63 -3 63 C-3 56 -3 49 -3 42 C-2.34 42 -1.68 42 -1 42 C-1 40.68 -1 39.36 -1 38 C-1.66 38 -2.32 38 -3 38 C-3 36.35 -3 34.7 -3 33 C-2.34 33 -1.68 33 -1 33 C-1 31.68 -1 30.36 -1 29 C-1.66 29 -2.32 29 -3 29 C-3 28.01 -3 27.02 -3 26 C-2.34 26 -1.68 26 -1 26 C-1 24.68 -1 23.36 -1 22 C-1.66 22 -2.32 22 -3 22 C-3 15.07 -3 8.14 -3 1 C-1 0 -1 0 0 0 Z " fill="#B6D1C2" transform="translate(332,321)"/>
<path d="M0 0 C0.33 0 0.66 0 1 0 C1.02911003 3.89581756 1.04683587 7.791607 1.0625 11.6875 C1.07087891 12.79029297 1.07925781 13.89308594 1.08789062 15.02929688 C1.09111328 16.09599609 1.09433594 17.16269531 1.09765625 18.26171875 C1.10289307 19.24100342 1.10812988 20.22028809 1.11352539 21.22924805 C1.00308543 23.92469572 0.60534166 26.37545639 0 29 C-0.66 29 -1.32 29 -2 29 C-2 29.66 -2 30.32 -2 31 C-1.34 31.33 -0.68 31.66 0 32 C-0.66 32 -1.32 32 -2 32 C-2 34.31 -2 36.62 -2 39 C-1.34 39.33 -0.68 39.66 0 40 C-0.66 40 -1.32 40 -2 40 C-2 41.98 -2 43.96 -2 46 C-1.34 46 -0.68 46 0 46 C0 47.32 0 48.64 0 50 C-0.66 50 -1.32 50 -2 50 C-2 50.99 -2 51.98 -2 53 C-1.34 53 -0.68 53 0 53 C0 54.32 0 55.64 0 57 C-0.66 57 -1.32 57 -2 57 C-2 58.65 -2 60.3 -2 62 C-1.34 62 -0.68 62 0 62 C-0.144375 62.556875 -0.28875 63.11375 -0.4375 63.6875 C-1.02769128 66.11384195 -1.523429 68.54906345 -2 71 C-1.34 71.33 -0.68 71.66 0 72 C-0.66 72 -1.32 72 -2 72 C-1.34 74.64 -0.68 77.28 0 80 C-0.66 80 -1.32 80 -2 80 C-2 80.66 -2 81.32 -2 82 C-1.34 82.33 -0.68 82.66 0 83 C-0.66 83 -1.32 83 -2 83 C-2 84.32 -2 85.64 -2 87 C-1.34 87 -0.68 87 0 87 C0 87.66 0 88.32 0 89 C-0.66 89 -1.32 89 -2 89 C-1.67 90.65 -1.34 92.3 -1 94 C-0.67 94 -0.34 94 0 94 C0 95.65 0 97.3 0 99 C1.32 99.66 2.64 100.32 4 101 C1.0625 100.625 1.0625 100.625 -2 100 C-3.46854 97.06291999 -3.13019549 94.10656295 -3.11352539 90.88818359 C-3.11367142 90.15637375 -3.11381744 89.4245639 -3.1139679 88.670578 C-3.11327003 86.24650124 -3.10548354 83.82250088 -3.09765625 81.3984375 C-3.09579162 79.71977785 -3.09436793 78.04111766 -3.09336853 76.36245728 C-3.08954688 71.94012962 -3.07971959 67.51783472 -3.06866455 63.09552002 C-3.05844286 58.58451785 -3.05386928 54.07351041 -3.04882812 49.5625 C-3.03809702 40.70831893 -3.02102481 31.85416219 -3 23 C-2.01 23 -1.02 23 0 23 C0 15.41 0 7.82 0 0 Z " fill="#76827B" transform="translate(331,297)"/>
<path d="M0 0 C0.33 0 0.66 0 1 0 C1.13553629 15.69927268 0.83168492 31.32185453 0 47 C-0.99 47 -1.98 47 -3 47 C-3.71125207 35.31514456 -4.14534014 23.70795574 -4 12 C-3.34 12 -2.68 12 -2 12 C-1.06213918 6.94990405 -1.06213918 6.94990405 -2 2 C-1.34 2 -0.68 2 0 2 C0 1.34 0 0.68 0 0 Z " fill="#9BACA2" transform="translate(331,273)"/>
<path d="M0 0 C10.08459357 2.24102079 10.08459357 2.24102079 13.4375 4.625 C15.97917817 6.54942872 15.97917817 6.54942872 19 7 C20.625 9.5 20.625 9.5 22 12 C17.26210835 10.55676531 13.01141849 8.62773267 8.625 6.375 C7.98433594 6.05015625 7.34367187 5.7253125 6.68359375 5.390625 C5.12052499 4.59742593 3.55999378 3.79922969 2 3 C2.00444122 3.84524734 2.00888245 4.69049469 2.01345825 5.56135559 C2.05351026 13.52184267 2.08397182 21.48229598 2.10362434 29.4428606 C2.1140675 33.53559983 2.12823636 37.6282559 2.15087891 41.72094727 C2.17258839 45.66963711 2.18456462 49.61824689 2.18975449 53.56699181 C2.19345366 55.07450305 2.20067711 56.58200986 2.21146011 58.08948708 C2.22595004 60.19883363 2.22797902 62.30784812 2.22705078 64.41723633 C2.231492 65.61858719 2.23593323 66.81993805 2.24050903 68.05769348 C2 71 2 71 0 74 C0 49.58 0 25.16 0 0 Z " fill="#78AF8F" transform="translate(119,26)"/>
<path d="M0 0 C0 0.66 0 1.32 0 2 C-0.99 2.33 -1.98 2.66 -3 3 C-3.66 3.66 -4.32 4.32 -5 5 C-5.33 5.33 -5.66 5.66 -6 6 C-6.99 6 -7.98 6 -9 6 C-9.99 6.33 -10.98 6.66 -12 7 C-12 7.66 -12 8.32 -12 9 C-16 9 -20 9 -24 9 C-24.33 9.99 -24.66 10.98 -25 12 C-25 11.34 -25 10.68 -25 10 C-26.32 10.33 -27.64 10.66 -29 11 C-29 11.66 -29 12.32 -29 13 C-29.66 13 -30.32 13 -31 13 C-31.33 14.32 -31.66 15.64 -32 17 C-32.66 16.34 -33.32 15.68 -34 15 C-36.31 15.66 -38.62 16.32 -41 17 C-41 16.34 -41 15.68 -41 15 C-40.01 14.67 -39.02 14.34 -38 14 C-38.33 13.34 -38.66 12.68 -39 12 C-21.421875 6.140625 -21.421875 6.140625 -18.22851562 5.08007812 C-16.02616017 4.34329496 -13.82704399 3.59677512 -11.63085938 2.84179688 C-10.56158203 2.47634766 -9.49230469 2.11089844 -8.390625 1.734375 C-7.42672852 1.40147461 -6.46283203 1.06857422 -5.46972656 0.72558594 C-3 0 -3 0 0 0 Z " fill="#88928C" transform="translate(124,320)"/>
<path d="M0 0 C0.33 0 0.66 0 1 0 C1.12569599 6.53619154 1.12569599 6.53619154 0.49609375 8.859375 C-0.14374636 11.62025988 -0.05661055 14.1694723 0 17 C0.07085731 20.54286536 0.04583593 23.60103323 -1 27 C-0.34 27 0.32 27 1 27 C0.51421457 30.12290635 0.0013988 32.99580359 -1 36 C-0.34 36 0.32 36 1 36 C0.42415568 38.38564077 -0.22227595 40.66682784 -1 43 C-0.34 43 0.32 43 1 43 C1 46.33333333 1 49.66666667 1 53 C0.34 53 -0.32 53 -1 53 C-1 60.92 -1 68.84 -1 77 C-1.33 77 -1.66 77 -2 77 C-2 53.24 -2 29.48 -2 5 C-1.34 5 -0.68 5 0 5 C0 3.35 0 1.7 0 0 Z " fill="#6B6B6B" transform="translate(365,308)"/>
<path d="M0 0 C2 2 2 2 2.24050903 3.91091919 C2.23606781 4.68813324 2.23162659 5.46534729 2.22705078 6.26611328 C2.22682419 7.58725632 2.22682419 7.58725632 2.22659302 8.93508911 C2.21627045 9.88721283 2.20594788 10.83933655 2.1953125 11.8203125 C2.1924826 12.79410858 2.18965271 13.76790466 2.18673706 14.77120972 C2.17551913 17.88926349 2.1504117 21.00703268 2.125 24.125 C2.11497228 26.23567294 2.10584607 28.34635038 2.09765625 30.45703125 C2.07557458 35.63811835 2.04208129 40.81903885 2 46 C1.34 46 0.68 46 0 46 C-0.33 32.47 -0.66 18.94 -1 5 C-2.98 5.33 -4.96 5.66 -7 6 C-7 4.35 -7 2.7 -7 1 C-5.68 1 -4.36 1 -3 1 C-2.01 0.67 -1.02 0.34 0 0 Z " fill="#6C8A78" transform="translate(278,195)"/>
<path d="M0 0 C2.0625 0.4375 2.0625 0.4375 4 1 C1.37236078 3.62763922 -1.514816 4.2669965 -4.984375 5.3125 C-5.6775885 5.52688721 -6.370802 5.74127441 -7.08502197 5.9621582 C-9.30491236 6.64735036 -11.52733428 7.32387105 -13.75 8 C-15.95775809 8.6780489 -18.16497393 9.35784052 -20.37213135 10.0378418 C-21.74514704 10.46013726 -23.11861827 10.88095547 -24.49261475 11.30004883 C-27.45361049 12.20458056 -30.37549658 13.138088 -33.28222656 14.20703125 C-36 15 -36 15 -39 14 C-38.34 14 -37.68 14 -37 14 C-36.34 12.68 -35.68 11.36 -35 10 C-35 10.66 -35 11.32 -35 12 C-33.35 11.67 -31.7 11.34 -30 11 C-29.67 9.68 -29.34 8.36 -29 7 C-28.401875 7.226875 -27.80375 7.45375 -27.1875 7.6875 C-26.465625 7.790625 -25.74375 7.89375 -25 8 C-23.97895449 7.02149805 -22.9793879 6.02019573 -22 5 C-20.68 5 -19.36 5 -18 5 C-8.38095506 4.14706376 -8.38095506 4.14706376 0 0 Z " fill="#738279" transform="translate(175,267)"/>
<path d="M0 0 C0.66 0 1.32 0 2 0 C3.50522027 16.67320918 2.67781212 33.30522615 2 50 C3.65 50 5.3 50 7 50 C7 50.33 7 50.66 7 51 C5.35 51 3.7 51 2 51 C1.67 51.66 1.34 52.32 1 53 C-0.24177521 50.51644959 -0.12036681 48.86892378 -0.11352539 46.09130859 C-0.11344986 45.07040131 -0.11337433 44.04949402 -0.11329651 42.99765015 C-0.10813522 41.89240997 -0.10297394 40.7871698 -0.09765625 39.6484375 C-0.0962413 38.5192691 -0.09482635 37.39010071 -0.09336853 36.22671509 C-0.08775744 32.60945012 -0.07520303 28.99224636 -0.0625 25.375 C-0.05748643 22.92708423 -0.05292328 20.47916748 -0.04882812 18.03125 C-0.0377844 12.02081234 -0.02103544 6.01041054 0 0 Z " fill="#90A198" transform="translate(118,344)"/>
<path d="M0 0 C0.66 0 1.32 0 2 0 C2.144375 1.0725 2.28875 2.145 2.4375 3.25 C2.86999946 6.75038043 2.86999946 6.75038043 3.625 9.0625 C4 11 4 11 3.51953125 13.421875 C2.66221383 19.326407 2.99994618 25.25505294 3.12695312 31.20898438 C3.13791016 32.16482422 3.14886719 33.12066406 3.16015625 34.10546875 C3.17699463 34.97324951 3.19383301 35.84103027 3.21118164 36.73510742 C3 39 3 39 1 42 C0.34 40.02 -0.32 38.04 -1 36 C-0.34 36 0.32 36 1 36 C0.6695166 35.32493408 0.3390332 34.64986816 -0.00146484 33.9543457 C-1.21985318 30.34952487 -1.13290776 27.52965854 -0.9765625 23.73046875 C-0.95153656 23.04946609 -0.92651062 22.36846344 -0.90072632 21.66682434 C-0.8190071 19.50650629 -0.72223688 17.34716962 -0.625 15.1875 C-0.566711 13.71683607 -0.50940882 12.24613267 -0.453125 10.77539062 C-0.31350232 7.18306615 -0.16038134 3.59146443 0 0 Z " fill="#A9BCB1" transform="translate(363,222)"/>
<path d="M0 0 C0.66 0 1.32 0 2 0 C2.83531074 8.97959051 3.4432097 17.97937905 3 27 C2.67 27.33 2.34 27.66 2 28 C2.23310791 29.93146557 2.47095011 31.86258156 2.7421875 33.7890625 C3.102813 36.88169933 3.06480821 39.88920587 3 43 C1.68 43 0.36 43 -1 43 C-1.10233795 33.07321909 -0.97944262 23.27327033 -0.22265625 13.37109375 C0.07211992 8.90807913 0.09466003 4.47005708 0 0 Z " fill="#90AD9B" transform="translate(363,166)"/>
<path d="M0 0 C0.33 0 0.66 0 1 0 C1.96093373 10.02099097 2.13278105 19.96589778 2.09765625 30.01953125 C2.09578597 31.61520849 2.09436496 33.21088631 2.09336853 34.80656433 C2.08959134 38.96076099 2.07980338 43.11492143 2.06866455 47.269104 C2.05834593 51.5264029 2.05384876 55.78370777 2.04882812 60.04101562 C2.03817568 68.36069351 2.02115863 76.68034222 2 85 C1.34 85 0.68 85 0 85 C-0.76437122 79.63258382 -1.12334178 74.44901692 -1.02172852 69.0234375 C-1.01212097 68.27124435 -1.00251343 67.51905121 -0.99261475 66.74406433 C-0.95995101 64.28760425 -0.91949747 61.83134075 -0.87890625 59.375 C-0.85457312 57.66008166 -0.83073122 55.94515629 -0.80735779 54.23022461 C-0.74483426 49.73887049 -0.6756795 45.24764252 -0.60510254 40.75640869 C-0.53413065 36.16448664 -0.46948698 31.57247588 -0.40429688 26.98046875 C-0.27569419 17.98688164 -0.14007973 8.99341517 0 0 Z " fill="#75B08E" transform="translate(119,100)"/>
<path d="M0 0 C1.6975594 0.58353604 3.35544725 1.28050817 5 2 C5.69738281 2.20238281 6.39476562 2.40476563 7.11328125 2.61328125 C9.94712773 3.7558801 11.19707609 4.48643455 13 7 C14.05783351 12.91142254 13.44485662 19.05004273 13 25 C11.68 25 10.36 25 9 25 C9 18.73 9 12.46 9 6 C7.68 6.33 6.36 6.66 5 7 C3.4375 5.625 3.4375 5.625 2 4 C1.01 3.67 0.02 3.34 -1 3 C-0.67 2.01 -0.34 1.02 0 0 Z " fill="#85968C" transform="translate(319,170)"/>
<path d="M0 0 C0.33 0 0.66 0 1 0 C1 20.13 1 40.26 1 61 C0.34 61 -0.32 61 -1 61 C-1 61.66 -1 62.32 -1 63 C-2.43655854 63.08131463 -3.8744483 63.13933559 -5.3125 63.1875 C-6.51326172 63.23970703 -6.51326172 63.23970703 -7.73828125 63.29296875 C-10 63 -10 63 -13 60 C-8.71 60 -4.42 60 0 60 C0 40.2 0 20.4 0 0 Z " fill="#676867" transform="translate(151,334)"/>
<path d="M0 0 C5.13411529 1.49677969 9.5048602 3.75206349 14.125 6.375 C14.82753906 6.76171875 15.53007812 7.1484375 16.25390625 7.546875 C19.99154878 9.65239007 23.23022035 11.64564375 26 15 C26.75 17.75 26.75 17.75 27 20 C26.05125 19.814375 25.1025 19.62875 24.125 19.4375 C21.10131207 18.71313368 21.10131207 18.71313368 19 20 C18.95745644 18.00045254 18.95919217 15.99958364 19 14 C19.33 13.67 19.66 13.34 20 13 C19.21625 12.87625 18.4325 12.7525 17.625 12.625 C15 12 15 12 13 10 C12.34 10 11.68 10 11 10 C11 9.01 11 8.02 11 7 C9.948125 6.5978125 9.948125 6.5978125 8.875 6.1875 C5.8350176 4.9318551 2.9272226 3.49764877 0 2 C0 1.34 0 0.68 0 0 Z " fill="#647D6E" transform="translate(180,93)"/>
<path d="M0 0 C3.85819315 0.58581475 6.64995249 1.7239734 10.01171875 3.6875 C10.93404297 4.22117187 11.85636719 4.75484375 12.80664062 5.3046875 C14.23266602 6.14386719 14.23266602 6.14386719 15.6875 7 C17.58710772 8.1043935 19.48684102 9.20857105 21.38671875 10.3125 C22.22420654 10.80363281 23.06169434 11.29476562 23.92456055 11.80078125 C25.26113422 12.57307273 26.61931515 13.30965758 28 14 C28 14.66 28 15.32 28 16 C27.38125 15.814375 26.7625 15.62875 26.125 15.4375 C23.95839822 14.76313824 23.95839822 14.76313824 22 16 C22 15.01 22 14.02 22 13 C21.21625 12.690625 20.4325 12.38125 19.625 12.0625 C17 11 17 11 15 10 C14.67 10.66 14.34 11.32 14 12 C13.01 11.34 12.02 10.68 11 10 C10.01 10.66 9.02 11.32 8 12 C7.33333333 9.33333333 6.66666667 6.66666667 6 4 C4.02 4 2.04 4 0 4 C0 2.68 0 1.36 0 0 Z M7 5 C8 7 8 7 8 7 Z " fill="#77847C" transform="translate(151,77)"/>
<path d="M0 0 C0.99 0 1.98 0 3 0 C3 0.66 3 1.32 3 2 C5.53505545 3.02587676 8.07178226 4.02622813 10.640625 4.96484375 C11.50171875 5.28582031 12.3628125 5.60679687 13.25 5.9375 C14.55710937 6.41509766 14.55710937 6.41509766 15.890625 6.90234375 C18 8 18 8 19 11 C21.32315031 11.7013284 23.65789079 12.36485174 26 13 C28.25 14.5 28.25 14.5 30 16 C31.485 16.99 31.485 16.99 33 18 C30 19 30 19 27.13671875 17.78417969 C25.42935547 16.86233887 25.42935547 16.86233887 23.6875 15.921875 C23.07737061 15.5946344 22.46724121 15.2673938 21.83862305 14.93023682 C20.54834874 14.23547055 19.26072265 13.53576706 17.97558594 12.83154297 C16.01334734 11.75730706 14.04281231 10.69978415 12.0703125 9.64453125 C1.57909389 3.9732487 1.57909389 3.9732487 -1 1 C-0.67 0.67 -0.34 0.34 0 0 Z " fill="#718A7B" transform="translate(300,123)"/>
<path d="M0 0 C0.33 0.66 0.66 1.32 1 2 C3.33157492 2.34541851 5.66508361 2.67794257 8 3 C8.99 3.66 9.98 4.32 11 5 C13.7866308 5.6966577 16.11879288 6 19 6 C19.33 6.99 19.66 7.98 20 9 C23.50294871 10.71567661 23.50294871 10.71567661 27 12 C27 12.66 27 13.32 27 14 C27.66 14.33 28.32 14.66 29 15 C25.4295044 14.39212064 22.36894994 13.42957067 19.05859375 11.96875 C18.14529297 11.57042969 17.23199219 11.17210937 16.29101562 10.76171875 C15.34935547 10.34535156 14.40769531 9.92898438 13.4375 9.5 C11.56242087 8.67430053 9.68616104 7.85127586 7.80859375 7.03125 C6.98157959 6.66580078 6.15456543 6.30035156 5.30249023 5.92382812 C3.20882533 5.08378699 1.19991991 4.48290154 -1 4 C-0.67 2.68 -0.34 1.36 0 0 Z " fill="#7D9185" transform="translate(364,269)"/>
<path d="M0 0 C2.64 0.33 5.28 0.66 8 1 C3.40921738 4.06052175 -1.7291498 5.4412246 -6.9375 7.1875 C-8.03513672 7.56841797 -9.13277344 7.94933594 -10.26367188 8.34179688 C-11.32005859 8.69693359 -12.37644531 9.05207031 -13.46484375 9.41796875 C-14.91298462 9.90946411 -14.91298462 9.90946411 -16.39038086 10.41088867 C-19.06870617 11.01551015 -20.45095763 10.92292265 -23 10 C-20.66785852 8.79371992 -18.50357861 7.8345262 -16 7 C-15.67 6.34 -15.34 5.68 -15 5 C-13.0625 4.3125 -13.0625 4.3125 -11 4 C-10.34 4.33 -9.68 4.66 -9 5 C-8.67 4.34 -8.34 3.68 -8 3 C-5.0262656 1.90963072 -4.11592499 1.96135834 -1 3 C-0.67 2.01 -0.34 1.02 0 0 Z " fill="#728579" transform="translate(79,296)"/>
<path d="M0 0 C6.45353615 2.05764921 12.7361263 4.42383482 19 7 C19 4.69 19 2.38 19 0 C19.66 0 20.32 0 21 0 C21 2.97 21 5.94 21 9 C18.08517222 9.80967438 16.53886783 10.21845993 13.6875 9.0625 C13.130625 8.711875 12.57375 8.36125 12 8 C11.67 8.66 11.34 9.32 11 10 C9.0625 9.25 9.0625 9.25 7 8 C6.87625 7.34 6.7525 6.68 6.625 6 C6.315625 5.01 6.315625 5.01 6 4 C3.00384054 2.6954344 3.00384054 2.6954344 0 2 C0 1.34 0 0.68 0 0 Z M9 6 C10 8 10 8 10 8 Z " fill="#6D8075" transform="translate(395,319)"/>
<path d="M0 0 C4.70874022 1.73774937 9.0714703 4.03453352 13.5 6.375 C14.24636719 6.76171875 14.99273437 7.1484375 15.76171875 7.546875 C19.85689253 9.70680737 23.48353834 11.94402736 27 15 C21.555 14.505 21.555 14.505 16 14 C16 13.34 16 12.68 16 12 C15.01 11.67 14.02 11.34 13 11 C12.566875 10.505 12.13375 10.01 11.6875 9.5 C9.31932032 7.39495139 7.08518447 7.34279827 4 7 C4.33 6.01 4.66 5.02 5 4 C4.360625 3.71125 3.72125 3.4225 3.0625 3.125 C1 2 1 2 0 0 Z " fill="#7E9286" transform="translate(290,154)"/>
<path d="M0 0 C1.32 0.33 2.64 0.66 4 1 C4 8.59 4 16.18 4 24 C3.01 24 2.02 24 1 24 C0.67 16.08 0.34 8.16 0 0 Z " fill="#BFBFC0" transform="translate(327,248)"/>
<path d="M0 0 C5 2 5 2 7.4375 3.125 C10.04234991 4.18647607 10.04234991 4.18647607 13.125 3.875 C16 4 16 4 17.6875 5.8125 C18.120625 6.534375 18.55375 7.25625 19 8 C19.98165594 9.01801357 20.97591432 10.0246803 22 11 C21.67 11.99 21.34 12.98 21 14 C17.6791635 12.24447798 14.36995304 10.46809081 11.0625 8.6875 C9.64420898 7.93823242 9.64420898 7.93823242 8.19726562 7.17382812 C7.29814453 6.68720703 6.39902344 6.20058594 5.47265625 5.69921875 C4.22367554 5.03152466 4.22367554 5.03152466 2.94946289 4.3503418 C1 3 1 3 0 0 Z M12 6 C16 7 16 7 16 7 Z " fill="#6E7F75" transform="translate(228,84)"/>
<path d="M0 0 C0 0.66 0 1.32 0 2 C0.66 2.33 1.32 2.66 2 3 C0.0509375 3.1546875 0.0509375 3.1546875 -1.9375 3.3125 C-7.56228887 3.93549877 -13.88704561 4.88704561 -18 9 C-19.32 9 -20.64 9 -22 9 C-22.33 9.66 -22.66 10.32 -23 11 C-25.31 10.67 -27.62 10.34 -30 10 C-27.57185404 7.57185404 -25.70593397 7.09609071 -22.44140625 6.0546875 C-21.33345703 5.70019531 -20.22550781 5.34570312 -19.08398438 4.98046875 C-17.92189453 4.61566406 -16.75980469 4.25085938 -15.5625 3.875 C-14.40427734 3.50246094 -13.24605469 3.12992187 -12.05273438 2.74609375 C-3.39700664 0 -3.39700664 0 0 0 Z " fill="#708E7C" transform="translate(206,294)"/>
<path d="M0 0 C0.66 0 1.32 0 2 0 C2 7.59 2 15.18 2 23 C1.01 23 0.02 23 -1 23 C-1.33 16.73 -1.66 10.46 -2 4 C-1.34 4 -0.68 4 0 4 C0 2.68 0 1.36 0 0 Z " fill="#C7C7C8" transform="translate(329,297)"/>
<path d="M0 0 C0.99 0.66 1.98 1.32 3 2 C3.763125 1.690625 4.52625 1.38125 5.3125 1.0625 C8.61511406 -0.24318463 10.59407352 0.20792407 14 1 C11.20470302 2.86353132 9.12771967 3.72523712 5.96484375 4.7265625 C4.99095703 5.0359375 4.01707031 5.3453125 3.01367188 5.6640625 C1.4909668 6.13972656 1.4909668 6.13972656 -0.0625 6.625 C-1.08150391 6.94984375 -2.10050781 7.2746875 -3.15039062 7.609375 C-10.72907366 10 -10.72907366 10 -13 10 C-13 9.34 -13 8.68 -13 8 C-12.030625 7.87625 -11.06125 7.7525 -10.0625 7.625 C-9.051875 7.41875 -8.04125 7.2125 -7 7 C-6.67 6.34 -6.34 5.68 -6 5 C-3.4375 4.375 -3.4375 4.375 -1 4 C-0.67 2.68 -0.34 1.36 0 0 Z " fill="#6C8174" transform="translate(200,256)"/>
<path d="M0 0 C1.32 0.99 2.64 1.98 4 3 C4.66 2.01 5.32 1.02 6 0 C6.061875 0.61488281 6.12375 1.22976563 6.1875 1.86328125 C6.81763802 4.21669764 6.81763802 4.21669764 9.25 5.23046875 C10.1575 5.54628906 11.065 5.86210937 12 6.1875 C16.95364238 7.95364238 16.95364238 7.95364238 18 9 C18.04092937 11.33297433 18.04241723 13.66705225 18 16 C17.34 16 16.68 16 16 16 C16 14.02 16 12.04 16 10 C14.1128125 9.4121875 14.1128125 9.4121875 12.1875 8.8125 C6.59787448 6.96115906 1.31731793 4.51454474 -4 2 C-2.68 1.34 -1.36 0.68 0 0 Z " fill="#6D7E74" transform="translate(398,283)"/>
<path d="M0 0 C0.45375 0.495 0.9075 0.99 1.375 1.5 C2.87635519 3.22609337 2.87635519 3.22609337 5 3 C5.33 2.01 5.66 1.02 6 0 C10 0 14 0 18 0 C15.0198759 1.9867494 12.57703925 2.90852573 9.1875 4 C8.17042969 4.33 7.15335938 4.66 6.10546875 5 C4.56826172 5.495 4.56826172 5.495 3 6 C1.41638672 6.556875 1.41638672 6.556875 -0.19921875 7.125 C-3 8 -3 8 -6 8 C-5.34 6.68 -4.68 5.36 -4 4 C-2.68 4 -1.36 4 0 4 C0 2.68 0 1.36 0 0 Z " fill="#5C7165" transform="translate(224,248)"/>
<path d="M0 0 C0.99 0 1.98 0 3 0 C3 1.32 3 2.64 3 4 C1.08396843 4.64771508 -0.83285113 5.29309948 -2.75 5.9375 C-4.35101563 6.47697266 -4.35101563 6.47697266 -5.984375 7.02734375 C-12.99310345 9.28793103 -12.99310345 9.28793103 -17 8 C-14.66785852 6.79371992 -12.50357861 5.8345262 -10 5 C-9.34 4.34 -8.68 3.68 -8 3 C-7.01 3 -6.02 3 -5 3 C-4.67 2.34 -4.34 1.68 -4 1 C-2.68 1.33 -1.36 1.66 0 2 C0 1.34 0 0.68 0 0 Z " fill="#7E8380" transform="translate(104,288)"/>
<path d="M0 0 C4.45836229 0.50952712 6.58451895 2.19755401 10 5 C12.18214568 5.77833534 12.18214568 5.77833534 14 6 C14 6.66 14 7.32 14 8 C14.969375 8.2475 15.93875 8.495 16.9375 8.75 C17.948125 9.1625 18.95875 9.575 20 10 C20.875 12.125 20.875 12.125 21 14 C20.01 14 19.02 14 18 14 C17.43796875 13.42765625 16.8759375 12.8553125 16.296875 12.265625 C13.29313623 9.30275343 9.98290723 7.65526456 6.25 5.75 C5.55261719 5.38648438 4.85523438 5.02296875 4.13671875 4.6484375 C2.42794346 3.75893803 0.71443502 2.87854133 -1 2 C-0.67 1.34 -0.34 0.68 0 0 Z " fill="#65796D" transform="translate(344,147)"/>
<path d="M0 0 C0.33 0.66 0.66 1.32 1 2 C1.66 2 2.32 2 3 2 C3.33 1.34 3.66 0.68 4 0 C4.99 0.33 5.98 0.66 7 1 C7.144375 1.6496875 7.28875 2.299375 7.4375 2.96875 C7.623125 3.6390625 7.80875 4.309375 8 5 C9.824446 5.98672494 9.824446 5.98672494 12 6.5 C14.1875 7.09375 14.1875 7.09375 16 8 C16.75 10.09375 16.75 10.09375 17 12 C12.08558588 10.56347895 7.99761642 8.45840385 3.625 5.875 C2.98433594 5.50246094 2.34367187 5.12992187 1.68359375 4.74609375 C0.11951523 3.83565998 -1.44065534 2.91851809 -3 2 C-2.01 1.34 -1.02 0.68 0 0 Z M4 2 C4.66 2.66 5.32 3.32 6 4 C6 3.34 6 2.68 6 2 C5.34 2 4.68 2 4 2 Z " fill="#607167" transform="translate(256,98)"/>
<path d="M0 0 C5.68843533 0.46436207 9.3022533 1.68394351 14 5 C15.4375 7.75 15.4375 7.75 16 10 C14.68 10.33 13.36 10.66 12 11 C11.731875 10.195625 11.46375 9.39125 11.1875 8.5625 C10.795625 7.716875 10.40375 6.87125 10 6 C9.01 5.67 8.02 5.34 7 5 C6.01 5.495 6.01 5.495 5 6 C3.2925002 4.71937515 1.62626404 3.38232443 0 2 C0 1.34 0 0.68 0 0 Z " fill="#76837B" transform="translate(231,123)"/>
<path d="M0 0 C2.58436814 0.9556152 5.16749301 1.91437889 7.75 2.875 C8.47960937 3.14441406 9.20921875 3.41382813 9.9609375 3.69140625 C13.40110416 4.97365019 16.76479567 6.24617871 20 8 C19.67 8.99 19.34 9.98 19 11 C18.34 10.67 17.68 10.34 17 10 C14.90951951 9.41205236 13.17634453 9 11 9 C11 8.01 11 7.02 11 6 C8.64632287 5.3121764 8.64632287 5.3121764 6 5 C5.01 5.66 4.02 6.32 3 7 C3.33 5.68 3.66 4.36 4 3 C2.68 2.67 1.36 2.34 0 2 C0 1.34 0 0.68 0 0 Z " fill="#7B8F83" transform="translate(374,310)"/>
<path d="M0 0 C0.99 0.33 1.98 0.66 3 1 C3 1.99 3 2.98 3 4 C0.06377536 4.83806616 -2.87382067 5.67062444 -5.8125 6.5 C-7.06256836 6.85771484 -7.06256836 6.85771484 -8.33789062 7.22265625 C-9.54155273 7.56103516 -9.54155273 7.56103516 -10.76953125 7.90625 C-11.50792236 8.11572266 -12.24631348 8.32519531 -13.00708008 8.54101562 C-15 9 -15 9 -18 9 C-15.41697495 5.69946799 -13.00758523 5.60984993 -9 5 C-8.67 4.34 -8.34 3.68 -8 3 C-5.35139573 2.40644386 -2.70802678 2.25790731 0 2 C0 1.34 0 0.68 0 0 Z " fill="#6B7F74" transform="translate(263,200)"/>
<path d="M0 0 C16.3255814 4.98837209 16.3255814 4.98837209 21 12 C16.26210835 10.55676531 12.01141849 8.62773267 7.625 6.375 C6.98433594 6.05015625 6.34367187 5.7253125 5.68359375 5.390625 C4.12052499 4.59742593 2.55999378 3.79922969 1 3 C0.67 3.99 0.34 4.98 0 6 C0 4.02 0 2.04 0 0 Z " fill="#5B7767" transform="translate(120,26)"/>
<path d="M0 0 C0.33 0 0.66 0 1 0 C1 7.26 1 14.52 1 22 C0.01 22.33 -0.98 22.66 -2 23 C-2 18.05 -2 13.1 -2 8 C-1.34 8 -0.68 8 0 8 C0 7.34 0 6.68 0 6 C-0.66 5.67 -1.32 5.34 -2 5 C-2 4.34 -2 3.68 -2 3 C-1.34 3 -0.68 3 0 3 C0 2.01 0 1.02 0 0 Z " fill="#ABCAB8" transform="translate(331,225)"/>
<path d="M0 0 C6.53121574 0.35624813 11.74900344 1.95825783 17 6 C18.2578125 8.16796875 18.2578125 8.16796875 19 10 C18.01 10.33 17.02 10.66 16 11 C15.67 10.01 15.34 9.02 15 8 C12.16666667 6.16666667 12.16666667 6.16666667 9 5 C8.01 5.33 7.02 5.66 6 6 C5.67 5.01 5.34 4.02 5 3 C3.35 3 1.7 3 0 3 C0 2.01 0 1.02 0 0 Z " fill="#707D75" transform="translate(273,147)"/>
<path d="M0 0 C2 0.75 2 0.75 4 3.75 C4.1953125 6.66796875 4.1953125 6.66796875 4.125 9.9375 C4.10695312 11.02417969 4.08890625 12.11085938 4.0703125 13.23046875 C4.03550781 14.47763672 4.03550781 14.47763672 4 15.75 C3.67 15.75 3.34 15.75 3 15.75 C3 12.45 3 9.15 3 5.75 C2.21625 5.935625 1.4325 6.12125 0.625 6.3125 C-2 6.75 -2 6.75 -4 5.75 C-4 4.1 -4 2.45 -4 0.75 C-2 -0.25 -2 -0.25 0 0 Z " fill="#8B9E93" transform="translate(147,329.25)"/>
<path d="M0 0 C0.33 0.66 0.66 1.32 1 2 C1.886875 1.649375 2.77375 1.29875 3.6875 0.9375 C7.06203126 -0.01755602 8.69686152 0.02848868 12 1 C9.07382565 2.9507829 6.97955419 3.71513462 3.625 4.625 C2.68914062 4.88539063 1.75328125 5.14578125 0.7890625 5.4140625 C-1.90123635 5.97925133 -4.26144571 6.10954217 -7 6 C-5 3 -5 3 -2 1 C-1.34 1.33 -0.68 1.66 0 2 C0 1.34 0 0.68 0 0 Z " fill="#8F9E95" transform="translate(125,337)"/>
<path d="M0 0 C0.66 0 1.32 0 2 0 C2.71167986 5.07071901 3.10662326 9.88208358 3 15 C1.68 15 0.36 15 -1 15 C-1.18451025 4.44191344 -1.18451025 4.44191344 0 0 Z " fill="#A6B5AC" transform="translate(363,194)"/>
<path d="M0 0 C3.79049707 1.42749981 7.27122456 3.16236542 10.8125 5.125 C12.27623047 5.93324219 12.27623047 5.93324219 13.76953125 6.7578125 C14.87361328 7.37269531 14.87361328 7.37269531 16 8 C12.41395891 9.06834141 11.28723841 8.74634541 8 7 C6.68 7 5.36 7 4 7 C3.67 6.01 3.34 5.02 3 4 C0.99983534 2.79117904 0.99983534 2.79117904 -1 2 C-0.67 1.34 -0.34 0.68 0 0 Z " fill="#72867A" transform="translate(218,114)"/>
<path d="M0 0 C0.99 0.66 1.98 1.32 3 2 C2.34 2 1.68 2 1 2 C0.67 2.99 0.34 3.98 0 5 C-0.33 4.34 -0.66 3.68 -1 3 C-1.99 3.66 -2.98 4.32 -4 5 C-7.03452373 4.62068453 -8.37561021 3.74959319 -11 2 C-9.54494642 1.47007308 -8.08581873 0.9513211 -6.625 0.4375 C-5.81289062 0.14746094 -5.00078125 -0.14257812 -4.1640625 -0.44140625 C-2 -1 -2 -1 0 0 Z " fill="#ABB2AE" transform="translate(140,316)"/>
<path d="M0 0 C0 0.66 0 1.32 0 2 C0.66 2.33 1.32 2.66 2 3 C0.9790625 3.185625 0.9790625 3.185625 -0.0625 3.375 C-3.4277412 4.09100877 -6.70013425 5.02945125 -10 6 C-10 6.66 -10 7.32 -10 8 C-10.99 8 -11.98 8 -13 8 C-13.33 6.68 -13.66 5.36 -14 4 C-12.0429132 3.32968281 -10.08428887 2.66385317 -8.125 2 C-7.03445312 1.62875 -5.94390625 1.2575 -4.8203125 0.875 C-2 0 -2 0 0 0 Z " fill="#8E9892" transform="translate(158,309)"/>
<path d="M0 0 C1.485 0.99 1.485 0.99 3 2 C3.29296875 5.2578125 3.29296875 5.2578125 3.1875 9.125 C3.16042969 10.40632812 3.13335937 11.68765625 3.10546875 13.0078125 C3.07066406 13.99523437 3.03585937 14.98265625 3 16 C2.34 16 1.68 16 1 16 C0.67 16.66 0.34 17.32 0 18 C0 12.06 0 6.12 0 0 Z " fill="#767676" transform="translate(328,196)"/>
<path d="M0 0 C0 0.66 0 1.32 0 2 C-0.99 2.33 -1.98 2.66 -3 3 C-3.66 3.66 -4.32 4.32 -5 5 C-5.33 5.33 -5.66 5.66 -6 6 C-6.99 6 -7.98 6 -9 6 C-12.11785113 6.64644661 -12.11785113 6.64644661 -13 9 C-13 8.34 -13 7.68 -13 7 C-13.66 6.67 -14.32 6.34 -15 6 C-13.54345589 3.08691178 -11.64612352 2.94547684 -8.625 1.875 C-7.64789063 1.52179688 -6.67078125 1.16859375 -5.6640625 0.8046875 C-3 0 -3 0 0 0 Z " fill="#667A6E" transform="translate(124,320)"/>
<path d="M0 0 C5.76748007 0.14067025 10.19466767 3.10612208 15 6 C15 6.66 15 7.32 15 8 C14.38125 7.814375 13.7625 7.62875 13.125 7.4375 C10.95839822 6.76313824 10.95839822 6.76313824 9 8 C9 7.01 9 6.02 9 5 C8.21625 4.690625 7.4325 4.38125 6.625 4.0625 C4 3 4 3 2 2 C1.67 2.66 1.34 3.32 1 4 C0.01 3.34 -0.98 2.68 -2 2 C-1.34 1.34 -0.68 0.68 0 0 Z " fill="#64806F" transform="translate(164,85)"/>
<path d="M0 0 C1.98 0.99 3.96 1.98 6 3 C6 3.66 6 4.32 6 5 C7.32 5 8.64 5 10 5 C11.5625 6.4375 11.5625 6.4375 13 8 C13.99 8.33 14.98 8.66 16 9 C13.12367729 9.82834029 11.50056549 10.1820994 8.6484375 9.14453125 C7.89820313 8.70496094 7.14796875 8.26539062 6.375 7.8125 C5.61960938 7.38582031 4.86421875 6.95914063 4.0859375 6.51953125 C1.87097522 4.90601004 0.52185803 3.26340032 -1 1 C-0.67 0.67 -0.34 0.34 0 0 Z " fill="#5B7365" transform="translate(185,59)"/>
<path d="M0 0 C1.98 0.66 3.96 1.32 6 2 C3.57869669 4.42130331 2.19888623 4.52840504 -1.125 5.125 C-2.03507812 5.29257812 -2.94515625 5.46015625 -3.8828125 5.6328125 C-4.58148438 5.75398438 -5.28015625 5.87515625 -6 6 C-6.33 5.01 -6.66 4.02 -7 3 C-4 1 -4 1 -1 1 C-0.67 0.67 -0.34 0.34 0 0 Z " fill="#8D9390" transform="translate(129,280)"/>
<path d="M0 0 C0.66 0 1.32 0 2 0 C2 2.97 2 5.94 2 9 C0.35 9.33 -1.3 9.66 -3 10 C-3.99 8.68 -4.98 7.36 -6 6 C-5.34 5.67 -4.68 5.34 -4 5 C-1.875 5.9375 -1.875 5.9375 0 7 C0 4.69 0 2.38 0 0 Z " fill="#7A8E84" transform="translate(414,319)"/>
<path d="M0 0 C2.64 0.33 5.28 0.66 8 1 C3.09731431 4.26845713 -1.13173703 5.27944109 -7 5 C-7 4.01 -7 3.02 -7 2 C-4.03 2.495 -4.03 2.495 -1 3 C-0.67 2.01 -0.34 1.02 0 0 Z " fill="#697F72" transform="translate(79,296)"/>
<path d="M0 0 C2.0625 0.4375 2.0625 0.4375 4 1 C1.82813579 3.17186421 0.50023469 3.6793248 -2.375 4.625 C-3.14585937 4.88539063 -3.91671875 5.14578125 -4.7109375 5.4140625 C-7 6 -7 6 -11 6 C-11 5.34 -11 4.68 -11 4 C-10.28972656 3.79503906 -9.57945312 3.59007812 -8.84765625 3.37890625 C-7.92855469 3.10949219 -7.00945312 2.84007812 -6.0625 2.5625 C-4.68771484 2.16224609 -4.68771484 2.16224609 -3.28515625 1.75390625 C-1.0597507 1.20973949 -1.0597507 1.20973949 0 0 Z " fill="#919D96" transform="translate(175,267)"/>
<path d="M0 0 C0.33 0 0.66 0 1 0 C1 1.65 1 3.3 1 5 C0.34 5 -0.32 5 -1 5 C-1 5.66 -1 6.32 -1 7 C-2.43655854 7.08131463 -3.8744483 7.13933559 -5.3125 7.1875 C-6.51326172 7.23970703 -6.51326172 7.23970703 -7.73828125 7.29296875 C-10 7 -10 7 -13 4 C-8.71 4 -4.42 4 0 4 C0 2.68 0 1.36 0 0 Z " fill="#6C726E" transform="translate(151,390)"/>
<path d="M0 0 C1.6498275 0.42218816 3.29483665 0.86324425 4.9375 1.3125 C6.31228516 1.67794922 6.31228516 1.67794922 7.71484375 2.05078125 C8.46894531 2.36402344 9.22304688 2.67726563 10 3 C10.33 3.99 10.66 4.98 11 6 C8 5 5 4 2 3 C2 4.32 2 5.64 2 7 C1.34 7 0.68 7 0 7 C-0.38133299 5.0085944 -0.71325582 3.00720923 -1 1 C-0.67 0.67 -0.34 0.34 0 0 Z " fill="#A6B7AC" transform="translate(363,306)"/>
<path d="M0 0 C0.99 0.66 1.98 1.32 3 2 C2 5 2 5 0.0390625 5.984375 C-0.75757813 6.23703125 -1.55421875 6.4896875 -2.375 6.75 C-3.56222656 7.14445312 -3.56222656 7.14445312 -4.7734375 7.546875 C-7 8 -7 8 -10 7 C-9.34 7 -8.68 7 -8 7 C-7.34 5.68 -6.68 4.36 -6 3 C-6 3.66 -6 4.32 -6 5 C-4.35 4.67 -2.7 4.34 -1 4 C-0.67 2.68 -0.34 1.36 0 0 Z " fill="#728279" transform="translate(146,274)"/>
<path d="M0 0 C5.44915409 1.10830253 8.84015388 2.10014426 13 6 C9.37 5.67 5.74 5.34 2 5 C2 4.34 2 3.68 2 3 C1.01 2.67 0.02 2.34 -1 2 C-0.67 1.34 -0.34 0.68 0 0 Z " fill="#77897E" transform="translate(304,163)"/>
<path d="M0 0 C1.65 0 3.3 0 5 0 C5.09978121 3.49234244 4.77842938 6.59437148 4 10 C3.34 10 2.68 10 2 10 C2 8.35 2 6.7 2 5 C1.34 5 0.68 5 0 5 C0 3.35 0 1.7 0 0 Z " fill="#7A847E" transform="translate(242,284)"/>
<path d="M0 0 C0 2.64 0 5.28 0 8 C-1.32 8.33 -2.64 8.66 -4 9 C-4 6.36 -4 3.72 -4 1 C-2 0 -2 0 0 0 Z " fill="#9BB0A4" transform="translate(247,239)"/>
<path d="M0 0 C0.66 0.33 1.32 0.66 2 1 C2 6.28 2 11.56 2 17 C1.34 17 0.68 17 0 17 C-0.97040422 11.06975197 -0.89316269 5.93609666 0 0 Z " fill="#8AAE9A" transform="translate(119,168)"/>
<path d="M0 0 C3.34373475 0.55728913 6.03312999 1.35173889 9 3 C9 5.31 9 7.62 9 10 C8.34 10 7.68 10 7 10 C7 8.02 7 6.04 7 4 C4.69 3.34 2.38 2.68 0 2 C0 1.34 0 0.68 0 0 Z " fill="#7D9587" transform="translate(407,289)"/>
<path d="M0 0 C-2.85478326 1.90318884 -4.41941308 2.4619099 -7.6875 3.125 C-8.49574219 3.29257812 -9.30398437 3.46015625 -10.13671875 3.6328125 C-10.75160156 3.75398438 -11.36648437 3.87515625 -12 4 C-12 3.01 -12 2.02 -12 1 C-7.67265609 -1.22923777 -4.71599818 -0.92470553 0 0 Z " fill="#9EB4A7" transform="translate(214,257)"/>
<path d="M0 0 C0.99 0 1.98 0 3 0 C3 0.99 3 1.98 3 3 C2.34 3 1.68 3 1 3 C1 3.99 1 4.98 1 6 C1.66 6 2.32 6 3 6 C3 7.32 3 8.64 3 10 C2.34 10 1.68 10 1 10 C1 11.65 1 13.3 1 15 C0.67 15 0.34 15 0 15 C0 10.05 0 5.1 0 0 Z " fill="#7E7E7E" transform="translate(328,344)"/>
<path d="M0 0 C0.33 0 0.66 0 1 0 C1 4.95 1 9.9 1 15 C-2 13 -2 13 -2.75 10.625 C-2.99286095 8.07496 -2.8028831 6.40864929 -2 4 C-1.34 4 -0.68 4 0 4 C0 2.68 0 1.36 0 0 Z " fill="#355743" transform="translate(246,329)"/>
<path d="M0 0 C0 0.66 0 1.32 0 2 C-0.99 2.33 -1.98 2.66 -3 3 C-3.33 3.66 -3.66 4.32 -4 5 C-7.3 5 -10.6 5 -14 5 C-11.81385576 2.81385576 -10.46120051 2.31743465 -7.5625 1.375 C-6.38880859 0.98441406 -6.38880859 0.98441406 -5.19140625 0.5859375 C-3 0 -3 0 0 0 Z " fill="#A6B3AB" transform="translate(246,281)"/>
<path d="M0 0 C-0.33 0.66 -0.66 1.32 -1 2 C-1.66 1.67 -2.32 1.34 -3 1 C-3 1.66 -3 2.32 -3 3 C-7.455 3.495 -7.455 3.495 -12 4 C-11.67 3.01 -11.34 2.02 -11 1 C-7.08609399 -0.47694566 -4.00565371 -1.60226148 0 0 Z " fill="#748079" transform="translate(144,259)"/>
<path d="M0 0 C3.29680965 0.65784963 5.84117922 1.89420573 8.75 3.5625 C9.94882812 4.24505859 9.94882812 4.24505859 11.171875 4.94140625 C11.77515625 5.29074219 12.3784375 5.64007813 13 6 C11 7 11 7 8.90625 6.4765625 C8.1121875 6.19554687 7.318125 5.91453125 6.5 5.625 C5.7059375 5.34914062 4.911875 5.07328125 4.09375 4.7890625 C2 4 2 4 0 3 C0 2.01 0 1.02 0 0 Z " fill="#90A096" transform="translate(266,141)"/>
<path d="M0 0 C3.72433382 1.2125738 7.37802806 2.50859979 11 4 C11 4.66 11 5.32 11 6 C11.66 6.33 12.32 6.66 13 7 C8.14036821 6.39254603 4.2594482 4.27241033 0 2 C0 1.34 0 0.68 0 0 Z " fill="#91A399" transform="translate(380,277)"/>
<path d="M0 0 C0 0.66 0 1.32 0 2 C0.969375 2.2475 1.93875 2.495 2.9375 2.75 C3.948125 3.1625 4.95875 3.575 6 4 C6.875 6.125 6.875 6.125 7 8 C4 8 4 8 2.0625 6.1875 C1.381875 5.465625 0.70125 4.74375 0 4 C-1.31558703 2.97676564 -2.64377755 1.96873032 -4 1 C-2 0 -2 0 0 0 Z " fill="#728B7C" transform="translate(358,153)"/>
<path d="M0 0 C5.70709064 0.46588495 9.15939723 1.93757784 14 5 C13.34 5.66 12.68 6.32 12 7 C8.875 6.625 8.875 6.625 6 6 C5.67 5.01 5.34 4.02 5 3 C2.49552484 1.78130071 2.49552484 1.78130071 0 1 C0 0.67 0 0.34 0 0 Z " fill="#668271" transform="translate(253,135)"/>
<path d="M0 0 C0 0.66 0 1.32 0 2 C-0.99 2.33 -1.98 2.66 -3 3 C-3.66 3.66 -4.32 4.32 -5 5 C-8 5 -11 5 -14 5 C-11.67684302 2.67684302 -10.12738825 2.27503325 -7 1.375 C-6.113125 1.11460937 -5.22625 0.85421875 -4.3125 0.5859375 C-2 0 -2 0 0 0 Z " fill="#9AACA1" transform="translate(174,304)"/>
<path d="M0 0 C0.99 0 1.98 0 3 0 C3 0.66 3 1.32 3 2 C3.7425 2.268125 4.485 2.53625 5.25 2.8125 C7.86636554 3.94229421 9.80187111 5.20893202 12 7 C6.71862571 6.48474397 3.42778844 4.74522883 -1 2 C-0.67 1.34 -0.34 0.68 0 0 Z " fill="#5D7567" transform="translate(300,123)"/>
<path d="M0 0 C0.66 0 1.32 0 2 0 C2.226875 0.61875 2.45375 1.2375 2.6875 1.875 C4.37929835 4.61410209 5.99244161 5.05024472 9 6 C9 6.66 9 7.32 9 8 C4.49197399 6.74194623 1.5087188 5.09592835 -2 2 C-1.34 2 -0.68 2 0 2 C0 1.34 0 0.68 0 0 Z " fill="#677D70" transform="translate(288,115)"/>
<path d="M0 0 C3.79588866 0.54226981 5.47211993 2.20127563 8 5 C5.50935112 5.68707555 3.62113708 6 1 6 C0.4465236 3.92446352 0 2.15634036 0 0 Z " fill="#9A9A9A" transform="translate(199,107)"/>
<path d="M0 0 C2 2 2 2 2 5 C1.21625 4.814375 0.4325 4.62875 -0.375 4.4375 C-2.97089775 3.74037734 -2.97089775 3.74037734 -5 5 C-5.99 4.34 -6.98 3.68 -8 3 C-5.36 2.01 -2.72 1.02 0 0 Z " fill="#A3B5AB" transform="translate(109,324)"/>
<path d="M0 0 C1.37478516 0.01740234 1.37478516 0.01740234 2.77734375 0.03515625 C3.69644531 0.04417969 4.61554688 0.05320313 5.5625 0.0625 C6.27277344 0.07410156 6.98304688 0.08570313 7.71484375 0.09765625 C3.53534702 2.8839874 0.78109049 4.09765625 -4.28515625 4.09765625 C-2.96145683 0.12655798 -2.96145683 0.12655798 0 0 Z " fill="#829088" transform="translate(234.28515625,247.90234375)"/>
<path d="M0 0 C2.96175123 0.61277612 4.38058783 1.25372522 7 3 C6.67 4.32 6.34 5.64 6 7 C3.69 6.01 1.38 5.02 -1 4 C-0.67 2.68 -0.34 1.36 0 0 Z " fill="#7E8983" transform="translate(276,109)"/>
<path d="M0 0 C0.33 0 0.66 0 1 0 C1 3.96 1 7.92 1 12 C1.66 12.33 2.32 12.66 3 13 C2.01 13 1.02 13 0 13 C0 11.68 0 10.36 0 9 C-0.66 9 -1.32 9 -2 9 C-2 7.35 -2 5.7 -2 4 C-1.34 4 -0.68 4 0 4 C0 2.68 0 1.36 0 0 Z " fill="#99B8A6" transform="translate(331,382)"/>
<path d="M0 0 C0 0.66 0 1.32 0 2 C0.66 2.33 1.32 2.66 2 3 C-2.62 3.33 -7.24 3.66 -12 4 C-8.74358283 0.74358283 -4.52301031 0 0 0 Z " fill="#A2AFA7" transform="translate(206,294)"/>
<path d="M0 0 C3.29279709 0.31865778 4.86535088 1.54515351 7 4 C6.67 4.99 6.34 5.98 6 7 C3.36 5.35 0.72 3.7 -2 2 C-1.34 1.34 -0.68 0.68 0 0 Z " fill="#86998E" transform="translate(153,42)"/>
<path d="M0 0 C0.33 0 0.66 0 1 0 C1.33 4.29 1.66 8.58 2 13 C3.65 13 5.3 13 7 13 C7 13.33 7 13.66 7 14 C5.35 14 3.7 14 2 14 C1.67 14.66 1.34 15.32 1 16 C-0.50156874 12.99686252 -0.09281204 10.20932478 -0.0625 6.875 C-0.05347656 5.59367187 -0.04445313 4.31234375 -0.03515625 2.9921875 C-0.02355469 2.00476563 -0.01195313 1.01734375 0 0 Z " fill="#5D7065" transform="translate(118,381)"/>
<path d="M0 0 C0.99 0.33 1.98 0.66 3 1 C2.979375 1.78375 2.95875 2.5675 2.9375 3.375 C2.81315937 5.98114961 2.81315937 5.98114961 4 8 C3.5625 10.125 3.5625 10.125 3 12 C2.34 12 1.68 12 1 12 C0.83278881 10.18755015 0.66624559 8.37503867 0.5 6.5625 C0.36078125 5.04849609 0.36078125 5.04849609 0.21875 3.50390625 C0 1 0 1 0 0 Z " fill="#878A88" transform="translate(243,297)"/>
<path d="M0 0 C0.33 0 0.66 0 1 0 C1 3.63 1 7.26 1 11 C0.01 11 -0.98 11 -2 11 C-1.85892253 9.54119891 -1.71197585 8.08296449 -1.5625 6.625 C-1.48128906 5.81289062 -1.40007812 5.00078125 -1.31640625 4.1640625 C-1 2 -1 2 0 0 Z " fill="#97B7A4" transform="translate(246,216)"/>
<path d="M0 0 C0.66 0 1.32 0 2 0 C2.33 2.97 2.66 5.94 3 9 C2.01 9.66 1.02 10.32 0 11 C0 7.37 0 3.74 0 0 Z " fill="#B2C0B8" transform="translate(363,210)"/>
<path d="M0 0 C0.33 0 0.66 0 1 0 C1 3.96 1 7.92 1 12 C0.67 11.34 0.34 10.68 0 10 C-0.66 10 -1.32 10 -2 10 C-2 8.35 -2 6.7 -2 5 C-1.34 5 -0.68 5 0 5 C0 3.35 0 1.7 0 0 Z " fill="#A2C7B2" transform="translate(331,349)"/>
<path d="M0 0 C0.33 1.32 0.66 2.64 1 4 C-1.57213134 5.61949011 -2.67669159 6.04408751 -5.75 5.625 C-6.4925 5.41875 -7.235 5.2125 -8 5 C-5.66785852 3.79371992 -3.50357861 2.8345262 -1 2 C-0.67 1.34 -0.34 0.68 0 0 Z " fill="#698172" transform="translate(95,291)"/>
<path d="M0 0 C4 0 4 0 6 1 C6 1.99 6 2.98 6 4 C4.02 4.33 2.04 4.66 0 5 C0 3.35 0 1.7 0 0 Z " fill="#646D67" transform="translate(271,196)"/>
<path d="M0 0 C2.625 0.75 2.625 0.75 5 2 C5.33 2.66 5.66 3.32 6 4 C4.3125 4.6875 4.3125 4.6875 2 5 C-0.75 3.5625 -0.75 3.5625 -3 2 C-2.01 1.34 -1.02 0.68 0 0 Z " fill="#88978E" transform="translate(313,129)"/>
<path d="M0 0 C1.65 0 3.3 0 5 0 C5.66 1.65 6.32 3.3 7 5 C6.01 5.495 6.01 5.495 5 6 C3.2925002 4.71937515 1.62626404 3.38232443 0 2 C0 1.34 0 0.68 0 0 Z " fill="#68746D" transform="translate(231,123)"/>
<path d="M0 0 C0.66 0.66 1.32 1.32 2 2 C2.66 1.67 3.32 1.34 4 1 C4.66 1.66 5.32 2.32 6 3 C5.67 3.99 5.34 4.98 5 6 C2.69 5.34 0.38 4.68 -2 4 C-2 3.34 -2 2.68 -2 2 C-1.34 2 -0.68 2 0 2 C0 1.34 0 0.68 0 0 Z " fill="#87938D" transform="translate(224,80)"/>
<path d="M0 0 C0.99 0.33 1.98 0.66 3 1 C2.42415568 3.38564077 1.77772405 5.66682784 1 8 C1.66 8 2.32 8 3 8 C3 8.66 3 9.32 3 10 C2.01 10 1.02 10 0 10 C0 6.7 0 3.4 0 0 Z " fill="#7B7B7B" transform="translate(363,343)"/>
<path d="M0 0 C2.02045442 0.60183749 4.02111039 1.27306096 6 2 C6.33 2.66 6.66 3.32 7 4 C4.36 4 1.72 4 -1 4 C-0.67 2.68 -0.34 1.36 0 0 Z " fill="#69736D" transform="translate(56,341)"/>
<path d="M0 0 C0.66 0 1.32 0 2 0 C2.74926071 3.66305234 3.2380014 6.42355152 2 10 C1.34 10 0.68 10 0 10 C0 6.7 0 3.4 0 0 Z " fill="#62816F" transform="translate(414,305)"/>
<path d="M0 0 C0.99 0.99 1.98 1.98 3 3 C2.67 3.66 2.34 4.32 2 5 C-0.9375 5.75 -0.9375 5.75 -4 6 C-4.66 5.34 -5.32 4.68 -6 4 C-5.38125 3.896875 -4.7625 3.79375 -4.125 3.6875 C-1.63473516 3.12474627 -1.63473516 3.12474627 0 0 Z " fill="#939995" transform="translate(152,272)"/>
<path d="M0 0 C0.0825 0.61875 0.165 1.2375 0.25 1.875 C0.81258459 4.18437567 0.81258459 4.18437567 3.0625 5.25 C3.701875 5.4975 4.34125 5.745 5 6 C0.59885603 5.49701212 -1.71195019 3.91227269 -5 1 C-2 0 -2 0 0 0 Z " fill="#8A9A91" transform="translate(183,57)"/>
<path d="M0 0 C-0.33 0.99 -0.66 1.98 -1 3 C-1.99 3 -2.98 3 -4 3 C-4.33 3.66 -4.66 4.32 -5 5 C-5 4.34 -5 3.68 -5 3 C-5.66 2.67 -6.32 2.34 -7 2 C-5.26578631 -1.46842738 -3.40984787 -1.13661596 0 0 Z " fill="#707371" transform="translate(116,324)"/>
<path d="M0 0 C4.40114397 0.50298788 6.71195019 2.08772731 10 5 C5.2482602 4.56802365 3.07999946 3.67230705 0 0 Z " fill="#9AABA1" transform="translate(298,159)"/>
<path d="M0 0 C2 2 2 2 3 5 C-0.68754757 4.50168276 -2.60490662 3.89932357 -5 1 C-3 0 -3 0 0 0 Z " fill="#829088" transform="translate(203,68)"/>
<path d="M0 0 C0.33 0.66 0.66 1.32 1 2 C1.99 2.33 2.98 2.66 4 3 C3.01 3 2.02 3 1 3 C1 3.66 1 4.32 1 5 C-0.65 5 -2.3 5 -4 5 C-2 2 -2 2 0 0 Z " fill="#707472" transform="translate(122,338)"/>
<path d="M0 0 C0.99 0 1.98 0 3 0 C3 2.64 3 5.28 3 8 C2.01 7.67 1.02 7.34 0 7 C0 6.34 0 5.68 0 5 C0.66 5 1.32 5 2 5 C2 4.34 2 3.68 2 3 C1.34 3 0.68 3 0 3 C0 2.01 0 1.02 0 0 Z " fill="#B0CEBD" transform="translate(329,289)"/>
<path d="M0 0 C2.97 0 5.94 0 9 0 C8.67 0.99 8.34 1.98 8 3 C8 2.34 8 1.68 8 1 C7.01 1 6.02 1 5 1 C5 1.66 5 2.32 5 3 C4.01 3 3.02 3 2 3 C2 2.34 2 1.68 2 1 C1.34 0.67 0.68 0.34 0 0 Z " fill="#636262" transform="translate(269,394)"/>
<path d="M0 0 C0.99 0 1.98 0 3 0 C2.67 2.31 2.34 4.62 2 7 C1.34 7 0.68 7 0 7 C0 4.69 0 2.38 0 0 Z " fill="#C7DBCF" transform="translate(329,377)"/>
<path d="M0 0 C0 1.32 0 2.64 0 4 C-2.31 3.67 -4.62 3.34 -7 3 C-4.74624683 0.74624683 -3.20799182 0 0 0 Z " fill="#89908C" transform="translate(183,301)"/>
<path d="M0 0 C-2.15341979 2.15341979 -3.03923709 2.64111965 -6 3 C-6.99 2.34 -7.98 1.68 -9 1 C-5.57367167 -0.61798838 -3.61944899 -1.34053666 0 0 Z " fill="#75857C" transform="translate(179,268)"/>
<path d="M0 0 C3.0831351 1.19899698 6.06279492 2.47700477 9 4 C7.3125 4.8125 7.3125 4.8125 5 5 C2.25 2.5625 2.25 2.5625 0 0 Z " fill="#8BA294" transform="translate(225,118)"/>
<path d="M0 0 C0.6875 2.0625 0.6875 2.0625 1 4 C-1.02045442 3.39816251 -3.02111039 2.72693904 -5 2 C-5.33 1.34 -5.66 0.68 -6 0 C-3 -1 -3 -1 0 0 Z " fill="#7F9187" transform="translate(272,106)"/>
<path d="M0 0 C2.4375 0.375 2.4375 0.375 5 1 C5.33 1.66 5.66 2.32 6 3 C4.02 3.33 2.04 3.66 0 4 C0 2.68 0 1.36 0 0 Z " fill="#86A091" transform="translate(151,77)"/>
<path d="M0 0 C1.98 0.99 3.96 1.98 6 3 C6 3.99 6 4.98 6 6 C3.11562221 4.70700306 1.12780579 3.34058637 -1 1 C-0.67 0.67 -0.34 0.34 0 0 Z " fill="#636B67" transform="translate(185,59)"/>
<path d="M0 0 C2.64 0.33 5.28 0.66 8 1 C7.67 1.99 7.34 2.98 7 4 C4.97954558 3.39816251 2.97888961 2.72693904 1 2 C0.67 1.34 0.34 0.68 0 0 Z " fill="#768A7F" transform="translate(143,39)"/>
<path d="M0 0 C1.485 0.99 1.485 0.99 3 2 C2.01 2 1.02 2 0 2 C0 1.34 0 0.68 0 0 Z " fill="#9A9A9A" transform="translate(404,281)"/>
<path d="M0 0 C0.66 0.66 1.32 1.32 2 2 C1.01 2 0.02 2 -1 2 C-0.67 1.34 -0.34 0.68 0 0 Z " fill="#9A9A9A" transform="translate(277,106)"/>
<path d="M0 0 C0.66 0 1.32 0 2 0 C2 0.66 2 1.32 2 2 C1.34 2 0.68 2 0 2 C0 1.34 0 0.68 0 0 Z " fill="#808080" transform="translate(271,193)"/>
<path d="M0 0 C0.99 0.495 0.99 0.495 2 1 C1.67 1.66 1.34 2.32 1 3 C0.67 2.01 0.34 1.02 0 0 Z " fill="#808080" transform="translate(287,157)"/>
<path d="M0 0 C0.66 0.66 1.32 1.32 2 2 C1.34 2 0.68 2 0 2 C0 1.34 0 0.68 0 0 Z " fill="#2A2A2A" transform="translate(422,461)"/>
<path d="M0 0 C0.66 0.66 1.32 1.32 2 2 C1.34 2 0.68 2 0 2 C0 1.34 0 0.68 0 0 Z " fill="#2A2A2A" transform="translate(422,437)"/>
<path d="M0 0 C0.66 0 1.32 0 2 0 C1.67 0.66 1.34 1.32 1 2 C0.67 1.34 0.34 0.68 0 0 Z " fill="#808080" transform="translate(379,316)"/>
<path d="M0 0 C0.66 0.66 1.32 1.32 2 2 C1.34 2 0.68 2 0 2 C0 1.34 0 0.68 0 0 Z " fill="#808080" transform="translate(276,193)"/>
<path d="M0 0 C0.66 0.66 1.32 1.32 2 2 C1.34 2 0.68 2 0 2 C0 1.34 0 0.68 0 0 Z " fill="#2A2A2A" transform="translate(422,141)"/>
<path d="M0 0 C0.66 0 1.32 0 2 0 C1.67 0.66 1.34 1.32 1 2 C0.67 1.34 0.34 0.68 0 0 Z " fill="#ABABAB" transform="translate(177,94)"/>
<path d="M0 0 C0.66 0.66 1.32 1.32 2 2 C1.34 2 0.68 2 0 2 C0 1.34 0 0.68 0 0 Z " fill="#2A2A2A" transform="translate(422,69)"/>
<path d="M0 0 C0.66 0.66 1.32 1.32 2 2 C1.34 2 0.68 2 0 2 C0 1.34 0 0.68 0 0 Z " fill="#000000" transform="translate(422,53)"/>
<path d="" fill="#000000" transform="translate(0,0)"/>
<path d="" fill="#414141" transform="translate(0,0)"/>
<path d="" fill="#414141" transform="translate(0,0)"/>
<path d="" fill="#414141" transform="translate(0,0)"/>
<path d="M0 0 C2 1 2 1 2 1 Z " fill="#C0C0C0" transform="translate(243,373)"/>
<path d="" fill="#414141" transform="translate(0,0)"/>
<path d="" fill="#414141" transform="translate(0,0)"/>
<path d="" fill="#414141" transform="translate(0,0)"/>
<path d="" fill="#414141" transform="translate(0,0)"/>
<path d="" fill="#414141" transform="translate(0,0)"/>
<path d="" fill="#414141" transform="translate(0,0)"/>
<path d="" fill="#414141" transform="translate(0,0)"/>
<path d="" fill="#414141" transform="translate(0,0)"/>
<path d="M0 0 C2 1 2 1 2 1 Z " fill="#C0C0C0" transform="translate(210,295)"/>
<path d="M0 0 C2 1 2 1 2 1 Z " fill="#C0C0C0" transform="translate(124,266)"/>
<path d="" fill="#828282" transform="translate(0,0)"/>
<path d="" fill="#414141" transform="translate(0,0)"/>
<path d="" fill="#414141" transform="translate(0,0)"/>
<path d="" fill="#414141" transform="translate(0,0)"/>
<path d="M0 0 C2 1 2 1 2 1 Z " fill="#C0C0C0" transform="translate(364,154)"/>
<path d="" fill="#414141" transform="translate(0,0)"/>
<path d="" fill="#414141" transform="translate(0,0)"/>
<path d="M0 0 C2 1 2 1 2 1 Z " fill="#C0C0C0" transform="translate(263,142)"/>
<path d="M0 0 C2 1 2 1 2 1 Z " fill="#C0C0C0" transform="translate(247,136)"/>
<path d="" fill="#000000" transform="translate(0,0)"/>
<path d="M0 0 C2 1 2 1 2 1 Z " fill="#C0C0C0" transform="translate(307,125)"/>
<path d="" fill="#000000" transform="translate(0,0)"/>
<path d="M0 0 C2 1 2 1 2 1 Z " fill="#C0C0C0" transform="translate(290,114)"/>
<path d="" fill="#000000" transform="translate(0,0)"/>
<path d="" fill="#000000" transform="translate(0,0)"/>
<path d="" fill="#414141" transform="translate(0,0)"/>
<path d="" fill="#000000" transform="translate(0,0)"/>
<path d="" fill="#000000" transform="translate(0,0)"/>
<path d="" fill="#828282" transform="translate(0,0)"/>
<path d="" fill="#000000" transform="translate(0,0)"/>
<path d="" fill="#000000" transform="translate(0,0)"/>
<path d="" fill="#000000" transform="translate(0,0)"/>
<path d="" fill="#414141" transform="translate(0,0)"/>
<path d="" fill="#000000" transform="translate(0,0)"/>
<path d="" fill="#000000" transform="translate(0,0)"/>
<path d="" fill="#000000" transform="translate(0,0)"/>
<path d="" fill="#000000" transform="translate(0,0)"/>
<path d="" fill="#000000" transform="translate(0,0)"/>
<path d="" fill="#000000" transform="translate(0,0)"/>
<path d="" fill="#000000" transform="translate(0,0)"/>
<path d="" fill="#000000" transform="translate(0,0)"/>
<path d="" fill="#000000" transform="translate(0,0)"/>
<path d="" fill="#000000" transform="translate(0,0)"/>
<path d="" fill="#000000" transform="translate(0,0)"/>
<path d="" fill="#000000" transform="translate(0,0)"/>
<path d="" fill="#000000" transform="translate(0,0)"/>
<path d="" fill="#828282" transform="translate(0,0)"/>
<path d="" fill="#828282" transform="translate(0,0)"/>
<path d="" fill="#828282" transform="translate(0,0)"/>
<path d="" fill="#000000" transform="translate(0,0)"/>
<path d="" fill="#828282" transform="translate(0,0)"/>
<path d="" fill="#828200" transform="translate(0,0)"/>
<path d="" fill="#008282" transform="translate(0,0)"/>
<path d="" fill="#828282" transform="translate(0,0)"/>
<path d="" fill="#828282" transform="translate(0,0)"/>
<path d="" fill="#828282" transform="translate(0,0)"/>
<path d="" fill="#828282" transform="translate(0,0)"/>
<path d="" fill="#828282" transform="translate(0,0)"/>
<path d="" fill="#828282" transform="translate(0,0)"/>
<path d="" fill="#828282" transform="translate(0,0)"/>
<path d="" fill="#828282" transform="translate(0,0)"/>
<path d="" fill="#828282" transform="translate(0,0)"/>
<path d="" fill="#828282" transform="translate(0,0)"/>
<path d="" fill="#828282" transform="translate(0,0)"/>
<path d="" fill="#828282" transform="translate(0,0)"/>
<path d="" fill="#828282" transform="translate(0,0)"/>
<path d="" fill="#828282" transform="translate(0,0)"/>
<path d="" fill="#828282" transform="translate(0,0)"/>
<path d="" fill="#828282" transform="translate(0,0)"/>
<path d="" fill="#828282" transform="translate(0,0)"/>
<path d="" fill="#828282" transform="translate(0,0)"/>
<path d="" fill="#828282" transform="translate(0,0)"/>
<path d="" fill="#828282" transform="translate(0,0)"/>
<path d="" fill="#828282" transform="translate(0,0)"/>
<path d="" fill="#828282" transform="translate(0,0)"/>
<path d="" fill="#828282" transform="translate(0,0)"/>
<path d="" fill="#828282" transform="translate(0,0)"/>
<path d="" fill="#828282" transform="translate(0,0)"/>
<path d="" fill="#828282" transform="translate(0,0)"/>
<path d="" fill="#828282" transform="translate(0,0)"/>
<path d="" fill="#828282" transform="translate(0,0)"/>
<path d="" fill="#828282" transform="translate(0,0)"/>
<path d="" fill="#828282" transform="translate(0,0)"/>
<path d="" fill="#828282" transform="translate(0,0)"/>
<path d="" fill="#828282" transform="translate(0,0)"/>
<path d="" fill="#828282" transform="translate(0,0)"/>
<path d="" fill="#828282" transform="translate(0,0)"/>
<path d="" fill="#828282" transform="translate(0,0)"/>
<path d="" fill="#828282" transform="translate(0,0)"/>
<path d="" fill="#828282" transform="translate(0,0)"/>
<path d="" fill="#828282" transform="translate(0,0)"/>
<path d="" fill="#828282" transform="translate(0,0)"/>
<path d="" fill="#828282" transform="translate(0,0)"/>
<path d="" fill="#828282" transform="translate(0,0)"/>
<path d="" fill="#828282" transform="translate(0,0)"/>
<path d="" fill="#828282" transform="translate(0,0)"/>
<path d="" fill="#828282" transform="translate(0,0)"/>
<path d="" fill="#828282" transform="translate(0,0)"/>
<path d="" fill="#828282" transform="translate(0,0)"/>
<path d="" fill="#828282" transform="translate(0,0)"/>
<path d="" fill="#828282" transform="translate(0,0)"/>
<path d="" fill="#828282" transform="translate(0,0)"/>
<path d="" fill="#828282" transform="translate(0,0)"/>
<path d="" fill="#828282" transform="translate(0,0)"/>
<path d="" fill="#828282" transform="translate(0,0)"/>
<path d="" fill="#828282" transform="translate(0,0)"/>
<path d="" fill="#828282" transform="translate(0,0)"/>
<path d="" fill="#828282" transform="translate(0,0)"/>
<path d="" fill="#828282" transform="translate(0,0)"/>
<path d="" fill="#828282" transform="translate(0,0)"/>
<path d="" fill="#828282" transform="translate(0,0)"/>
<path d="" fill="#828282" transform="translate(0,0)"/>
<path d="" fill="#828282" transform="translate(0,0)"/>
<path d="" fill="#828282" transform="translate(0,0)"/>
<path d="" fill="#828282" transform="translate(0,0)"/>
<path d="" fill="#828282" transform="translate(0,0)"/>
<path d="" fill="#828282" transform="translate(0,0)"/>
<path d="" fill="#828282" transform="translate(0,0)"/>
<path d="" fill="#828282" transform="translate(0,0)"/>
<path d="" fill="#828282" transform="translate(0,0)"/>
<path d="" fill="#828282" transform="translate(0,0)"/>
<path d="" fill="#828282" transform="translate(0,0)"/>
<path d="" fill="#828282" transform="translate(0,0)"/>
<path d="" fill="#828282" transform="translate(0,0)"/>
<path d="" fill="#828282" transform="translate(0,0)"/>
<path d="" fill="#828282" transform="translate(0,0)"/>
<path d="" fill="#828282" transform="translate(0,0)"/>
<path d="" fill="#828282" transform="translate(0,0)"/>
<path d="" fill="#828282" transform="translate(0,0)"/>
<path d="" fill="#828282" transform="translate(0,0)"/>
<path d="" fill="#828282" transform="translate(0,0)"/>
<path d="" fill="#828282" transform="translate(0,0)"/>
<path d="" fill="#828282" transform="translate(0,0)"/>
<path d="" fill="#828282" transform="translate(0,0)"/>
<path d="" fill="#828282" transform="translate(0,0)"/>
<path d="" fill="#828282" transform="translate(0,0)"/>
<path d="" fill="#828282" transform="translate(0,0)"/>
<path d="" fill="#828282" transform="translate(0,0)"/>
<path d="" fill="#828282" transform="translate(0,0)"/>
<path d="" fill="#828282" transform="translate(0,0)"/>
<path d="" fill="#828282" transform="translate(0,0)"/>
<path d="" fill="#828282" transform="translate(0,0)"/>
<path d="" fill="#828282" transform="translate(0,0)"/>
<path d="" fill="#828282" transform="translate(0,0)"/>
<path d="" fill="#828282" transform="translate(0,0)"/>
<path d="" fill="#828282" transform="translate(0,0)"/>
<path d="" fill="#828282" transform="translate(0,0)"/>
<path d="" fill="#828282" transform="translate(0,0)"/>
<path d="" fill="#828282" transform="translate(0,0)"/>
<path d="" fill="#828282" transform="translate(0,0)"/>
<path d="" fill="#828282" transform="translate(0,0)"/>
<path d="" fill="#828282" transform="translate(0,0)"/>
<path d="" fill="#828282" transform="translate(0,0)"/>
<path d="" fill="#828282" transform="translate(0,0)"/>
<path d="" fill="#828282" transform="translate(0,0)"/>
<path d="" fill="#828282" transform="translate(0,0)"/>
<path d="" fill="#828282" transform="translate(0,0)"/>
<path d="" fill="#828282" transform="translate(0,0)"/>
<path d="" fill="#828282" transform="translate(0,0)"/>
<path d="" fill="#828282" transform="translate(0,0)"/>
<path d="" fill="#828282" transform="translate(0,0)"/>
<path d="" fill="#828282" transform="translate(0,0)"/>
<path d="" fill="#828282" transform="translate(0,0)"/>
<path d="" fill="#828282" transform="translate(0,0)"/>
<path d="" fill="#828282" transform="translate(0,0)"/>
<path d="" fill="#828282" transform="translate(0,0)"/>
<path d="" fill="#828282" transform="translate(0,0)"/>
<path d="" fill="#828282" transform="translate(0,0)"/>
<path d="" fill="#828282" transform="translate(0,0)"/>
<path d="" fill="#828282" transform="translate(0,0)"/>
<path d="" fill="#828282" transform="translate(0,0)"/>
<path d="" fill="#828282" transform="translate(0,0)"/>
<path d="" fill="#828282" transform="translate(0,0)"/>
<path d="" fill="#828282" transform="translate(0,0)"/>
<path d="" fill="#828282" transform="translate(0,0)"/>
<path d="" fill="#828282" transform="translate(0,0)"/>
<path d="" fill="#828282" transform="translate(0,0)"/>
<path d="" fill="#828282" transform="translate(0,0)"/>
<path d="" fill="#828282" transform="translate(0,0)"/>
<path d="" fill="#828282" transform="translate(0,0)"/>
<path d="" fill="#828282" transform="translate(0,0)"/>
<path d="" fill="#828282" transform="translate(0,0)"/>
<path d="" fill="#828282" transform="translate(0,0)"/>
<path d="" fill="#828282" transform="translate(0,0)"/>
<path d="" fill="#828282" transform="translate(0,0)"/>
<path d="" fill="#828282" transform="translate(0,0)"/>
<path d="" fill="#828282" transform="translate(0,0)"/>
<path d="" fill="#828282" transform="translate(0,0)"/>
<path d="" fill="#828282" transform="translate(0,0)"/>
<path d="" fill="#828282" transform="translate(0,0)"/>
<path d="" fill="#828282" transform="translate(0,0)"/>
<path d="" fill="#828282" transform="translate(0,0)"/>
<path d="" fill="#828282" transform="translate(0,0)"/>
<path d="" fill="#828282" transform="translate(0,0)"/>
<path d="" fill="#828282" transform="translate(0,0)"/>
<path d="" fill="#828282" transform="translate(0,0)"/>
<path d="" fill="#828282" transform="translate(0,0)"/>
<path d="" fill="#828282" transform="translate(0,0)"/>
<path d="" fill="#828282" transform="translate(0,0)"/>
<path d="" fill="#828282" transform="translate(0,0)"/>
<path d="" fill="#828282" transform="translate(0,0)"/>
<path d="" fill="#828282" transform="translate(0,0)"/>
<path d="" fill="#828282" transform="translate(0,0)"/>
<path d="" fill="#828282" transform="translate(0,0)"/>
<path d="" fill="#828282" transform="translate(0,0)"/>
<path d="" fill="#828282" transform="translate(0,0)"/>
<path d="" fill="#828282" transform="translate(0,0)"/>
<path d="" fill="#828282" transform="translate(0,0)"/>
<path d="" fill="#828282" transform="translate(0,0)"/>
<path d="" fill="#828282" transform="translate(0,0)"/>
<path d="" fill="#828282" transform="translate(0,0)"/>
<path d="" fill="#000000" transform="translate(0,0)"/>
<path d="" fill="#828282" transform="translate(0,0)"/>
<path d="" fill="#828282" transform="translate(0,0)"/>
<path d="" fill="#828282" transform="translate(0,0)"/>
<path d="" fill="#000000" transform="translate(0,0)"/>
<path d="" fill="#828282" transform="translate(0,0)"/>
<path d="" fill="#828282" transform="translate(0,0)"/>
<path d="" fill="#000000" transform="translate(0,0)"/>
<path d="" fill="#000000" transform="translate(0,0)"/>
<path d="" fill="#828282" transform="translate(0,0)"/>
<path d="" fill="#828282" transform="translate(0,0)"/>
<path d="" fill="#828282" transform="translate(0,0)"/>
<path d="" fill="#828282" transform="translate(0,0)"/>
<path d="" fill="#828282" transform="translate(0,0)"/>
<path d="" fill="#828282" transform="translate(0,0)"/>
<path d="" fill="#000000" transform="translate(0,0)"/>
<path d="" fill="#000000" transform="translate(0,0)"/>
<path d="" fill="#000000" transform="translate(0,0)"/>
<path d="" fill="#000000" transform="translate(0,0)"/>
<path d="" fill="#000000" transform="translate(0,0)"/>
</svg>
